<svg width="438" height="373" viewBox="0 0 438 373" fill="none" xmlns="http://www.w3.org/2000/svg">
<path d="M125.1 318.7C108.5 318.7 93.55 315.9 80.25 310.3C67.05 304.6 55.8 296.75 46.5 286.75C37.3 276.65 30.25 264.9 25.35 251.5C20.45 238.1 18 223.7 18 208.3C18 186.6 22.5 167.5 31.5 151C40.5 134.5 52.75 121.65 68.25 112.45C83.75 103.15 101.3 98.5 120.9 98.5C128.1 98.5 135.05 99.05 141.75 100.15C148.45 101.25 154.7 102.75 160.5 104.65C166.4 106.45 171.75 108.4 176.55 110.5C181.45 112.5 185.6 114.5 189 116.5L187.5 127C179.8 122.6 172.2 119.05 164.7 116.35C157.2 113.55 149.75 111.55 142.35 110.35C135.05 109.05 127.8 108.4 120.6 108.4C102.5 108.4 86.45 112.55 72.45 120.85C58.55 129.15 47.65 140.8 39.75 155.8C31.85 170.8 27.9 188.4 27.9 208.6C27.9 222.5 29.95 235.5 34.05 247.6C38.15 259.7 44.25 270.35 52.35 279.55C60.55 288.65 70.65 295.8 82.65 301C94.75 306.2 108.7 308.8 124.5 308.8C129.9 308.8 135.25 308.5 140.55 307.9C145.95 307.2 151.25 306.2 156.45 304.9C161.65 303.5 166.7 301.7 171.6 299.5C176.5 297.2 181.2 294.5 185.7 291.4L187.5 301.9C183.3 304.8 178.7 307.35 173.7 309.55C168.8 311.65 163.65 313.4 158.25 314.8C152.95 316.1 147.5 317.05 141.9 317.65C136.3 318.35 130.7 318.7 125.1 318.7Z" fill="black"/>
<path d="M89.78 214.58C89.8267 214.58 89.85 214.65 89.85 214.79C89.85 214.93 89.8267 215 89.78 215H83.55C83.0367 215 82.08 214.043 80.68 212.13C79.28 210.193 77.5883 207.498 75.605 204.045C75.4183 204.068 75.15 204.08 74.8 204.08C73.89 204.08 73.2483 204.068 72.875 204.045V212.165C72.875 212.888 72.9333 213.413 73.05 213.74C73.1667 214.067 73.3883 214.288 73.715 214.405C74.065 214.522 74.6133 214.58 75.36 214.58C75.4067 214.58 75.43 214.65 75.43 214.79C75.43 214.93 75.4067 215 75.36 215C74.59 215 73.9833 214.988 73.54 214.965L70.88 214.93L68.325 214.965C67.8583 214.988 67.2283 215 66.435 215C66.365 215 66.33 214.93 66.33 214.79C66.33 214.65 66.365 214.58 66.435 214.58C67.1817 214.58 67.7183 214.522 68.045 214.405C68.395 214.288 68.6283 214.067 68.745 213.74C68.885 213.39 68.955 212.865 68.955 212.165V195.96C68.955 195.26 68.8967 194.747 68.78 194.42C68.6633 194.093 68.43 193.872 68.08 193.755C67.73 193.615 67.1933 193.545 66.47 193.545C66.4233 193.545 66.4 193.475 66.4 193.335C66.4 193.195 66.4233 193.125 66.47 193.125L68.325 193.16C69.3983 193.207 70.25 193.23 70.88 193.23C71.5567 193.23 72.3033 193.195 73.12 193.125C73.3767 193.102 73.7033 193.078 74.1 193.055C74.52 193.032 75.01 193.02 75.57 193.02C77.7167 193.02 79.3733 193.417 80.54 194.21C81.73 194.98 82.325 196.065 82.325 197.465C82.325 198.538 81.9983 199.565 81.345 200.545C80.6917 201.525 79.84 202.318 78.79 202.925C80.6567 205.865 82.22 208.163 83.48 209.82C84.7633 211.477 85.895 212.69 86.875 213.46C87.8783 214.207 88.8467 214.58 89.78 214.58ZM72.875 203.03C73.435 203.123 74.1117 203.17 74.905 203.17C75.745 203.17 76.41 203.042 76.9 202.785C77.39 202.528 77.74 202.085 77.95 201.455C78.1833 200.825 78.3 199.938 78.3 198.795C78.3 196.882 78.02 195.563 77.46 194.84C76.9 194.117 76.095 193.755 75.045 193.755C74.2517 193.755 73.6917 193.93 73.365 194.28C73.0383 194.63 72.875 195.213 72.875 196.03V203.03ZM134.798 209.435C134.798 209.388 134.845 209.365 134.938 209.365C135.008 209.365 135.067 209.388 135.113 209.435C135.183 209.458 135.218 209.482 135.218 209.505C134.985 211.325 134.868 212.982 134.868 214.475C134.868 214.662 134.833 214.802 134.763 214.895C134.693 214.965 134.553 215 134.343 215H118.873C118.803 215 118.768 214.93 118.768 214.79C118.768 214.65 118.803 214.58 118.873 214.58C119.62 214.58 120.157 214.522 120.483 214.405C120.833 214.288 121.067 214.067 121.183 213.74C121.3 213.39 121.358 212.865 121.358 212.165V195.96C121.358 195.26 121.3 194.747 121.183 194.42C121.067 194.093 120.833 193.872 120.483 193.755C120.133 193.615 119.597 193.545 118.873 193.545C118.803 193.545 118.768 193.475 118.768 193.335C118.768 193.195 118.803 193.125 118.873 193.125H133.713C133.947 193.125 134.063 193.23 134.063 193.44L134.133 198.095C134.133 198.142 134.063 198.177 133.923 198.2C133.807 198.223 133.737 198.2 133.713 198.13C133.34 196.777 132.71 195.773 131.823 195.12C130.937 194.467 129.77 194.14 128.323 194.14H127.273C126.573 194.14 126.06 194.292 125.733 194.595C125.407 194.898 125.243 195.365 125.243 195.995V203.135H128.148C129.502 203.135 130.54 202.902 131.263 202.435C131.987 201.968 132.348 201.315 132.348 200.475C132.348 200.405 132.407 200.37 132.523 200.37C132.663 200.37 132.733 200.405 132.733 200.475L132.698 203.625L132.733 205.305C132.78 206.098 132.803 206.728 132.803 207.195C132.803 207.242 132.733 207.265 132.593 207.265C132.453 207.265 132.383 207.242 132.383 207.195C132.383 206.238 132.01 205.492 131.263 204.955C130.54 204.395 129.49 204.115 128.113 204.115H125.243V212.025C125.243 212.702 125.372 213.203 125.628 213.53C125.885 213.857 126.293 214.02 126.853 214.02H128.008C129.828 214.02 131.287 213.647 132.383 212.9C133.48 212.153 134.285 210.998 134.798 209.435ZM179.485 192.74C180.512 192.74 181.585 192.833 182.705 193.02C183.825 193.183 184.7 193.405 185.33 193.685C185.54 193.755 185.668 193.848 185.715 193.965C185.785 194.058 185.843 194.233 185.89 194.49L186.31 199.355C186.31 199.425 186.252 199.472 186.135 199.495C186.018 199.518 185.948 199.483 185.925 199.39C185.132 197.547 184.07 196.123 182.74 195.12C181.41 194.117 179.87 193.615 178.12 193.615C175.81 193.615 174.025 194.467 172.765 196.17C171.505 197.873 170.875 200.16 170.875 203.03C170.875 205.177 171.213 207.137 171.89 208.91C172.59 210.683 173.558 212.095 174.795 213.145C176.055 214.172 177.478 214.685 179.065 214.685C180.558 214.685 181.888 214.195 183.055 213.215C184.245 212.212 185.307 210.695 186.24 208.665C186.263 208.572 186.333 208.537 186.45 208.56C186.59 208.583 186.66 208.63 186.66 208.7L186.135 213.46C186.088 213.74 186.03 213.927 185.96 214.02C185.913 214.09 185.785 214.172 185.575 214.265C183.498 215.035 181.363 215.42 179.17 215.42C176.323 215.42 173.943 214.86 172.03 213.74C170.117 212.597 168.705 211.162 167.795 209.435C166.908 207.685 166.465 205.865 166.465 203.975C166.465 201.758 167.06 199.798 168.25 198.095C169.463 196.392 171.062 195.073 173.045 194.14C175.052 193.207 177.198 192.74 179.485 192.74Z" fill="#EA1010"/>
<path d="M228.973 215.42C226.803 215.42 224.866 214.918 223.163 213.915C221.483 212.888 220.176 211.512 219.243 209.785C218.333 208.035 217.878 206.133 217.878 204.08C217.878 201.677 218.485 199.623 219.698 197.92C220.911 196.193 222.463 194.898 224.353 194.035C226.266 193.172 228.215 192.74 230.198 192.74C232.415 192.74 234.363 193.265 236.043 194.315C237.723 195.342 239.006 196.707 239.893 198.41C240.803 200.113 241.258 201.922 241.258 203.835C241.258 205.958 240.698 207.907 239.578 209.68C238.458 211.453 236.953 212.853 235.063 213.88C233.196 214.907 231.166 215.42 228.973 215.42ZM230.128 214.545C231.435 214.545 232.601 214.172 233.628 213.425C234.678 212.655 235.495 211.547 236.078 210.1C236.661 208.63 236.953 206.88 236.953 204.85C236.953 202.703 236.626 200.79 235.973 199.11C235.32 197.407 234.375 196.077 233.138 195.12C231.901 194.163 230.455 193.685 228.798 193.685C226.675 193.685 225.041 194.49 223.898 196.1C222.755 197.687 222.183 199.915 222.183 202.785C222.183 205.048 222.521 207.078 223.198 208.875C223.898 210.648 224.843 212.037 226.033 213.04C227.246 214.043 228.611 214.545 230.128 214.545ZM295.74 214.58C295.787 214.58 295.81 214.65 295.81 214.79C295.81 214.93 295.787 215 295.74 215H289.51C288.997 215 288.04 214.043 286.64 212.13C285.24 210.193 283.548 207.498 281.565 204.045C281.378 204.068 281.11 204.08 280.76 204.08C279.85 204.08 279.208 204.068 278.835 204.045V212.165C278.835 212.888 278.893 213.413 279.01 213.74C279.127 214.067 279.348 214.288 279.675 214.405C280.025 214.522 280.573 214.58 281.32 214.58C281.367 214.58 281.39 214.65 281.39 214.79C281.39 214.93 281.367 215 281.32 215C280.55 215 279.943 214.988 279.5 214.965L276.84 214.93L274.285 214.965C273.818 214.988 273.188 215 272.395 215C272.325 215 272.29 214.93 272.29 214.79C272.29 214.65 272.325 214.58 272.395 214.58C273.142 214.58 273.678 214.522 274.005 214.405C274.355 214.288 274.588 214.067 274.705 213.74C274.845 213.39 274.915 212.865 274.915 212.165V195.96C274.915 195.26 274.857 194.747 274.74 194.42C274.623 194.093 274.39 193.872 274.04 193.755C273.69 193.615 273.153 193.545 272.43 193.545C272.383 193.545 272.36 193.475 272.36 193.335C272.36 193.195 272.383 193.125 272.43 193.125L274.285 193.16C275.358 193.207 276.21 193.23 276.84 193.23C277.517 193.23 278.263 193.195 279.08 193.125C279.337 193.102 279.663 193.078 280.06 193.055C280.48 193.032 280.97 193.02 281.53 193.02C283.677 193.02 285.333 193.417 286.5 194.21C287.69 194.98 288.285 196.065 288.285 197.465C288.285 198.538 287.958 199.565 287.305 200.545C286.652 201.525 285.8 202.318 284.75 202.925C286.617 205.865 288.18 208.163 289.44 209.82C290.723 211.477 291.855 212.69 292.835 213.46C293.838 214.207 294.807 214.58 295.74 214.58ZM278.835 203.03C279.395 203.123 280.072 203.17 280.865 203.17C281.705 203.17 282.37 203.042 282.86 202.785C283.35 202.528 283.7 202.085 283.91 201.455C284.143 200.825 284.26 199.938 284.26 198.795C284.26 196.882 283.98 195.563 283.42 194.84C282.86 194.117 282.055 193.755 281.005 193.755C280.212 193.755 279.652 193.93 279.325 194.28C278.998 194.63 278.835 195.213 278.835 196.03V203.03ZM334.808 215.14C334.062 215.14 333.175 215.105 332.148 215.035C331.775 215.012 331.308 214.988 330.748 214.965C330.212 214.942 329.605 214.93 328.928 214.93L326.338 214.965C325.872 214.988 325.242 215 324.448 215C324.402 215 324.378 214.93 324.378 214.79C324.378 214.65 324.402 214.58 324.448 214.58C325.195 214.58 325.743 214.522 326.093 214.405C326.443 214.288 326.677 214.067 326.793 213.74C326.933 213.39 327.003 212.865 327.003 212.165V195.96C327.003 195.26 326.933 194.747 326.793 194.42C326.677 194.093 326.443 193.872 326.093 193.755C325.767 193.615 325.242 193.545 324.518 193.545C324.448 193.545 324.413 193.475 324.413 193.335C324.413 193.195 324.448 193.125 324.518 193.125L326.373 193.16C327.447 193.207 328.298 193.23 328.928 193.23C329.885 193.23 330.865 193.195 331.868 193.125C333.082 193.078 333.898 193.055 334.318 193.055C336.675 193.055 338.763 193.522 340.583 194.455C342.427 195.388 343.85 196.66 344.853 198.27C345.857 199.88 346.358 201.688 346.358 203.695C346.358 205.958 345.833 207.965 344.783 209.715C343.757 211.442 342.357 212.783 340.583 213.74C338.833 214.673 336.908 215.14 334.808 215.14ZM334.458 214.335C335.952 214.335 337.27 213.962 338.413 213.215C339.557 212.445 340.443 211.313 341.073 209.82C341.727 208.327 342.053 206.542 342.053 204.465C342.053 202.482 341.75 200.685 341.143 199.075C340.537 197.442 339.673 196.158 338.553 195.225C337.433 194.292 336.138 193.825 334.668 193.825C333.222 193.825 332.23 193.965 331.693 194.245C331.157 194.525 330.888 195.12 330.888 196.03V211.78C330.888 212.713 331.133 213.378 331.623 213.775C332.113 214.148 333.058 214.335 334.458 214.335ZM382.166 196.66C382.166 197.5 382.376 198.247 382.796 198.9C383.24 199.553 383.776 200.125 384.406 200.615C385.036 201.105 385.888 201.7 386.961 202.4C388.128 203.147 389.061 203.8 389.761 204.36C390.461 204.92 391.056 205.608 391.546 206.425C392.036 207.218 392.281 208.14 392.281 209.19C392.281 210.403 391.955 211.488 391.301 212.445C390.648 213.378 389.738 214.113 388.571 214.65C387.428 215.163 386.145 215.42 384.721 215.42C383.671 215.42 382.575 215.28 381.431 215C380.288 214.697 379.518 214.37 379.121 214.02C379.005 213.927 378.911 213.845 378.841 213.775C378.795 213.682 378.771 213.542 378.771 213.355L378.666 207.79V207.755C378.666 207.662 378.725 207.615 378.841 207.615C378.958 207.592 379.028 207.627 379.051 207.72C379.751 209.143 380.358 210.298 380.871 211.185C381.408 212.072 382.073 212.853 382.866 213.53C383.683 214.207 384.605 214.545 385.631 214.545C386.565 214.545 387.335 214.3 387.941 213.81C388.548 213.297 388.851 212.433 388.851 211.22C388.851 210.193 388.618 209.295 388.151 208.525C387.708 207.755 387.16 207.102 386.506 206.565C385.853 206.028 384.955 205.387 383.811 204.64C382.691 203.917 381.816 203.298 381.186 202.785C380.58 202.272 380.055 201.653 379.611 200.93C379.168 200.207 378.946 199.355 378.946 198.375C378.946 197.138 379.296 196.1 379.996 195.26C380.72 194.397 381.641 193.767 382.761 193.37C383.881 192.95 385.06 192.74 386.296 192.74C387.113 192.74 387.941 192.822 388.781 192.985C389.621 193.125 390.298 193.3 390.811 193.51C391.021 193.603 391.161 193.708 391.231 193.825C391.301 193.918 391.336 194.047 391.336 194.21V199.355C391.336 199.425 391.278 199.483 391.161 199.53C391.045 199.553 390.975 199.53 390.951 199.46L390.671 198.795C390.088 197.325 389.4 196.077 388.606 195.05C387.836 194.023 386.751 193.51 385.351 193.51C384.418 193.51 383.648 193.778 383.041 194.315C382.458 194.852 382.166 195.633 382.166 196.66Z" fill="black"/>
</svg>
