<svg width="382" height="219" viewBox="0 0 382 219" fill="none" xmlns="http://www.w3.org/2000/svg">
<path d="M103.875 213.75C89.7917 213.75 77.0833 211.458 65.75 206.875C54.5 202.292 44.9167 195.875 37 187.625C29.0833 179.292 23 169.542 18.75 158.375C14.5833 147.125 12.5 134.875 12.5 121.625C12.5 103.625 16.2083 87.7083 23.625 73.875C31.0417 59.9583 41.3333 49.0833 54.5 41.25C67.6667 33.4167 83 29.5 100.5 29.5C106.417 29.5 112.167 29.9167 117.75 30.75C123.333 31.5833 128.625 32.7083 133.625 34.125C138.625 35.5417 143.25 37.0833 147.5 38.75C151.75 40.4167 155.417 42.125 158.5 43.875L156.5 65.625C150 61.7917 143.667 58.7083 137.5 56.375C131.417 53.9583 125.417 52.2083 119.5 51.125C113.667 50.0417 107.958 49.5 102.375 49.5C89.5417 49.5 78.125 52.4167 68.125 58.25C58.125 64.0833 50.25 72.4167 44.5 83.25C38.8333 94 36 106.833 36 121.75C36 131.667 37.4583 141 40.375 149.75C43.375 158.5 47.7917 166.208 53.625 172.875C59.5417 179.542 66.8333 184.792 75.5 188.625C84.25 192.375 94.4167 194.25 106 194.25C110.25 194.25 114.5 194 118.75 193.5C123 192.917 127.208 192.042 131.375 190.875C135.542 189.708 139.625 188.167 143.625 186.25C147.708 184.25 151.708 181.917 155.625 179.25L157.375 200.75C153.875 203 150 204.958 145.75 206.625C141.583 208.292 137.167 209.667 132.5 210.75C127.917 211.75 123.208 212.5 118.375 213C113.542 213.5 108.708 213.75 103.875 213.75Z" fill="white"/>
<path d="M52.2 140C52.2 138.033 52.2 136.142 52.2 134.325C52.2 132.508 52.2 130.492 52.2 128.275V116.25C52.2 114.017 52.2 111.967 52.2 110.1C52.2 108.233 52.2 106.317 52.2 104.35C53.2 104.35 54.3667 104.35 55.7 104.35C57.0333 104.35 58.4667 104.35 60 104.35C61.55 104.35 63.1667 104.35 64.85 104.35C67.6333 104.35 69.9667 104.675 71.85 105.325C73.7333 105.958 75.15 107 76.1 108.45C77.05 109.883 77.525 111.817 77.525 114.25C77.525 116.233 77.1333 118.042 76.35 119.675C75.5833 121.308 74.3167 122.625 72.55 123.625C70.7833 124.608 68.4083 125.108 65.425 125.125L67.5 122.65L72.85 129.725C73.6833 130.825 74.5667 131.992 75.5 133.225C76.4333 134.458 77.3417 135.667 78.225 136.85C79.125 138.033 79.9167 139.083 80.6 140H73.825C72.7583 138.533 71.725 137.125 70.725 135.775C69.7417 134.408 68.775 133.075 67.825 131.775L61.6 123.225L65.15 126.275H56.925V121.5H63.4C65.2167 121.5 66.7167 121.292 67.9 120.875C69.1 120.442 69.9917 119.742 70.575 118.775C71.175 117.808 71.475 116.517 71.475 114.9C71.475 113.583 71.2667 112.542 70.85 111.775C70.4333 111.008 69.8833 110.433 69.2 110.05C68.5333 109.667 67.8 109.417 67 109.3C66.2 109.183 65.4167 109.125 64.65 109.125H53.875L57.95 105.25C57.95 107.3 57.95 109.25 57.95 111.1C57.95 112.95 57.95 114.967 57.95 117.15V128.275C57.95 130.492 57.95 132.508 57.95 134.325C57.95 136.142 57.95 138.033 57.95 140H52.2ZM91.0867 140C91.0867 138.033 91.0867 136.142 91.0867 134.325C91.0867 132.508 91.0867 130.492 91.0867 128.275V116.25C91.0867 114.017 91.0867 111.967 91.0867 110.1C91.0867 108.233 91.0867 106.317 91.0867 104.35H113.787V109.3C112.17 109.3 110.437 109.3 108.587 109.3C106.737 109.3 104.553 109.3 102.037 109.3H93.5617L96.8367 105.25C96.8367 107.217 96.8367 109.133 96.8367 111C96.8367 112.85 96.8367 114.9 96.8367 117.15V127.375C96.8367 129.575 96.8367 131.592 96.8367 133.425C96.8367 135.242 96.8367 137.133 96.8367 139.1L93.9117 135.05H102.512C104.612 135.05 106.603 135.05 108.487 135.05C110.37 135.05 112.178 135.05 113.912 135.05V140H91.0867ZM95.5367 124.35V119.575H102.312C104.578 119.575 106.52 119.575 108.137 119.575C109.77 119.575 111.345 119.575 112.862 119.575V124.35C111.278 124.35 109.67 124.35 108.037 124.35C106.42 124.35 104.503 124.35 102.287 124.35H95.5367ZM142.373 140.6C139.523 140.6 136.956 140.15 134.673 139.25C132.39 138.333 130.448 137.05 128.848 135.4C127.248 133.75 126.023 131.8 125.173 129.55C124.323 127.3 123.898 124.833 123.898 122.15C123.898 118.567 124.631 115.383 126.098 112.6C127.565 109.817 129.631 107.633 132.298 106.05C134.965 104.467 138.106 103.675 141.723 103.675C142.89 103.675 144.031 103.758 145.148 103.925C146.265 104.075 147.323 104.292 148.323 104.575C149.34 104.842 150.281 105.142 151.148 105.475C152.015 105.792 152.773 106.133 153.423 106.5L152.923 112.05C151.64 111.267 150.39 110.633 149.173 110.15C147.956 109.667 146.773 109.317 145.623 109.1C144.473 108.867 143.356 108.75 142.273 108.75C139.906 108.75 137.798 109.292 135.948 110.375C134.098 111.442 132.648 112.975 131.598 114.975C130.548 116.975 130.023 119.367 130.023 122.15C130.023 124 130.29 125.742 130.823 127.375C131.373 128.992 132.19 130.425 133.273 131.675C134.356 132.908 135.715 133.883 137.348 134.6C138.981 135.3 140.873 135.65 143.023 135.65C143.856 135.65 144.681 135.6 145.498 135.5C146.331 135.383 147.156 135.208 147.973 134.975C148.806 134.742 149.623 134.425 150.423 134.025C151.24 133.625 152.04 133.15 152.823 132.6L153.223 138.1C152.506 138.517 151.723 138.892 150.873 139.225C150.023 139.542 149.131 139.8 148.198 140C147.265 140.2 146.306 140.35 145.323 140.45C144.34 140.55 143.356 140.6 142.373 140.6Z" fill="#A93247"/>
<path d="M181.427 140.6C178.327 140.6 175.627 140.108 173.327 139.125C171.043 138.142 169.143 136.792 167.627 135.075C166.127 133.358 165.002 131.392 164.252 129.175C163.502 126.958 163.127 124.617 163.127 122.15C163.127 118.7 163.818 115.583 165.202 112.8C166.602 110 168.643 107.783 171.327 106.15C174.027 104.5 177.335 103.675 181.252 103.675C184.218 103.675 186.827 104.15 189.077 105.1C191.343 106.05 193.235 107.375 194.752 109.075C196.285 110.758 197.435 112.717 198.202 114.95C198.968 117.183 199.352 119.583 199.352 122.15C199.352 125.667 198.652 128.817 197.252 131.6C195.852 134.383 193.81 136.583 191.127 138.2C188.46 139.8 185.227 140.6 181.427 140.6ZM181.302 135.65C183.352 135.65 185.127 135.283 186.627 134.55C188.127 133.817 189.368 132.817 190.352 131.55C191.335 130.283 192.06 128.842 192.527 127.225C193.01 125.608 193.252 123.917 193.252 122.15C193.252 120.25 192.993 118.483 192.477 116.85C191.96 115.217 191.193 113.783 190.177 112.55C189.177 111.317 187.935 110.358 186.452 109.675C184.968 108.975 183.252 108.625 181.302 108.625C179.285 108.625 177.527 108.983 176.027 109.7C174.527 110.417 173.268 111.408 172.252 112.675C171.252 113.942 170.502 115.383 170.002 117C169.502 118.617 169.252 120.333 169.252 122.15C169.252 123.95 169.493 125.658 169.977 127.275C170.46 128.892 171.193 130.333 172.177 131.6C173.177 132.85 174.435 133.842 175.952 134.575C177.468 135.292 179.252 135.65 181.302 135.65ZM210.872 140C210.872 138.033 210.872 136.142 210.872 134.325C210.872 132.508 210.872 130.492 210.872 128.275V116.25C210.872 114.017 210.872 111.967 210.872 110.1C210.872 108.233 210.872 106.317 210.872 104.35C211.872 104.35 213.039 104.35 214.372 104.35C215.705 104.35 217.139 104.35 218.672 104.35C220.222 104.35 221.839 104.35 223.522 104.35C226.305 104.35 228.639 104.675 230.522 105.325C232.405 105.958 233.822 107 234.772 108.45C235.722 109.883 236.197 111.817 236.197 114.25C236.197 116.233 235.805 118.042 235.022 119.675C234.255 121.308 232.989 122.625 231.222 123.625C229.455 124.608 227.08 125.108 224.097 125.125L226.172 122.65L231.522 129.725C232.355 130.825 233.239 131.992 234.172 133.225C235.105 134.458 236.014 135.667 236.897 136.85C237.797 138.033 238.589 139.083 239.272 140H232.497C231.43 138.533 230.397 137.125 229.397 135.775C228.414 134.408 227.447 133.075 226.497 131.775L220.272 123.225L223.822 126.275H215.597V121.5H222.072C223.889 121.5 225.389 121.292 226.572 120.875C227.772 120.442 228.664 119.742 229.247 118.775C229.847 117.808 230.147 116.517 230.147 114.9C230.147 113.583 229.939 112.542 229.522 111.775C229.105 111.008 228.555 110.433 227.872 110.05C227.205 109.667 226.472 109.417 225.672 109.3C224.872 109.183 224.089 109.125 223.322 109.125H212.547L216.622 105.25C216.622 107.3 216.622 109.25 216.622 111.1C216.622 112.95 216.622 114.967 216.622 117.15V128.275C216.622 130.492 216.622 132.508 216.622 134.325C216.622 136.142 216.622 138.033 216.622 140H210.872ZM249.784 140C249.784 138.033 249.784 136.142 249.784 134.325C249.784 132.508 249.784 130.492 249.784 128.275V116.275C249.784 114.008 249.784 111.95 249.784 110.1C249.784 108.25 249.784 106.333 249.784 104.35C251.234 104.35 252.675 104.35 254.109 104.35C255.559 104.35 257.009 104.35 258.459 104.35C259.909 104.35 261.392 104.35 262.909 104.35C265.642 104.35 268.067 104.75 270.184 105.55C272.317 106.333 274.117 107.492 275.584 109.025C277.05 110.542 278.159 112.392 278.909 114.575C279.675 116.758 280.059 119.25 280.059 122.05C280.059 124.567 279.717 126.917 279.034 129.1C278.367 131.267 277.3 133.167 275.834 134.8C274.384 136.433 272.467 137.708 270.084 138.625C267.7 139.542 264.8 140 261.384 140C259.9 140 258.517 140 257.234 140C255.95 140 254.7 140 253.484 140C252.284 140 251.05 140 249.784 140ZM255.659 135.2H261.409C264.492 135.2 266.95 134.625 268.784 133.475C270.617 132.325 271.934 130.75 272.734 128.75C273.534 126.75 273.934 124.483 273.934 121.95C273.934 120.017 273.7 118.267 273.234 116.7C272.767 115.117 272.042 113.767 271.059 112.65C270.075 111.517 268.825 110.65 267.309 110.05C265.792 109.45 263.984 109.15 261.884 109.15H255.659C255.659 110.467 255.659 111.792 255.659 113.125C255.659 114.442 255.659 115.9 255.659 117.5V127C255.659 128.567 255.659 130.008 255.659 131.325C255.659 132.625 255.659 133.917 255.659 135.2ZM302.251 140.575C300.768 140.575 299.26 140.442 297.726 140.175C296.21 139.925 294.793 139.6 293.476 139.2C292.176 138.8 291.126 138.4 290.326 138L290.801 132.525C291.951 133.175 293.135 133.733 294.351 134.2C295.585 134.65 296.826 135.008 298.076 135.275C299.343 135.525 300.601 135.65 301.851 135.65C303.218 135.65 304.435 135.475 305.501 135.125C306.568 134.758 307.401 134.2 308.001 133.45C308.618 132.683 308.926 131.7 308.926 130.5C308.926 129.35 308.585 128.4 307.901 127.65C307.235 126.9 306.26 126.25 304.976 125.7C303.693 125.133 302.16 124.583 300.376 124.05C298.143 123.367 296.235 122.608 294.651 121.775C293.068 120.925 291.86 119.867 291.026 118.6C290.21 117.333 289.801 115.7 289.801 113.7C289.801 111.767 290.243 110.042 291.126 108.525C292.026 107.008 293.36 105.825 295.126 104.975C296.91 104.108 299.135 103.675 301.801 103.675C302.868 103.675 303.935 103.75 305.001 103.9C306.085 104.05 307.118 104.25 308.101 104.5C309.101 104.733 310.01 105.008 310.826 105.325C311.643 105.642 312.351 105.967 312.951 106.3L312.426 111.75C311.41 111.067 310.326 110.5 309.176 110.05C308.043 109.583 306.918 109.233 305.801 109C304.701 108.75 303.676 108.625 302.726 108.625C301.51 108.625 300.393 108.8 299.376 109.15C298.36 109.5 297.543 110.033 296.926 110.75C296.31 111.45 296.001 112.35 296.001 113.45C296.001 114.45 296.268 115.292 296.801 115.975C297.335 116.658 298.176 117.267 299.326 117.8C300.476 118.333 301.96 118.883 303.776 119.45C306.626 120.35 308.876 121.267 310.526 122.2C312.176 123.117 313.343 124.2 314.026 125.45C314.726 126.7 315.076 128.267 315.076 130.15C315.076 132.167 314.626 133.958 313.726 135.525C312.843 137.092 311.451 138.325 309.551 139.225C307.668 140.125 305.235 140.575 302.251 140.575Z" fill="white"/>
</svg>
