<svg width="423" height="243" viewBox="0 0 423 243" fill="none" xmlns="http://www.w3.org/2000/svg">
<path d="M124.95 242.85C108.25 242.85 93.2 240.05 79.8 234.45C66.5 228.85 55.2 221.05 45.9 211.05C36.6 201.05 29.45 189.35 24.45 175.95C19.55 162.45 17.1 147.95 17.1 132.45C17.1 110.75 21.55 91.65 30.45 75.15C39.45 58.55 51.75 45.6 67.35 36.3C82.95 27 100.75 22.35 120.75 22.35C127.95 22.35 134.9 22.9 141.6 24C148.3 25.1 154.6 26.55 160.5 28.35C166.4 30.15 171.8 32.1 176.7 34.2C181.7 36.2 185.95 38.2 189.45 40.2L187.65 55.5C179.85 51 172.2 47.4 164.7 44.7C157.3 41.9 149.95 39.85 142.65 38.55C135.45 37.25 128.35 36.6 121.35 36.6C104.05 36.6 88.7 40.55 75.3 48.45C62 56.35 51.55 67.5 43.95 81.9C36.45 96.3 32.7 113.25 32.7 132.75C32.7 146.05 34.65 158.5 38.55 170.1C42.45 181.7 48.3 191.9 56.1 200.7C63.9 209.4 73.6 216.25 85.2 221.25C96.8 226.25 110.2 228.75 125.4 228.75C130.7 228.75 135.95 228.45 141.15 227.85C146.45 227.15 151.65 226.15 156.75 224.85C161.95 223.45 167 221.65 171.9 219.45C176.8 217.15 181.5 214.4 186 211.2L187.95 226.5C183.75 229.3 179.15 231.75 174.15 233.85C169.15 235.95 163.95 237.65 158.55 238.95C153.15 240.25 147.6 241.2 141.9 241.8C136.3 242.5 130.65 242.85 124.95 242.85Z" fill="white"/>
<path d="M68.94 145C68.94 143.623 68.94 142.299 68.94 141.027C68.94 139.756 68.94 138.344 68.94 136.792V128.375C68.94 126.812 68.94 125.377 68.94 124.07C68.94 122.763 68.94 121.422 68.94 120.045C69.64 120.045 70.4567 120.045 71.39 120.045C72.3233 120.045 73.3267 120.045 74.4 120.045C75.485 120.045 76.6167 120.045 77.795 120.045C79.7433 120.045 81.3767 120.272 82.695 120.727C84.0133 121.171 85.005 121.9 85.67 122.915C86.335 123.918 86.6675 125.272 86.6675 126.975C86.6675 128.363 86.3933 129.629 85.845 130.772C85.3083 131.916 84.4217 132.837 83.185 133.537C81.9483 134.226 80.2858 134.576 78.1975 134.587L79.65 132.855L83.395 137.807C83.9783 138.577 84.5967 139.394 85.25 140.257C85.9033 141.121 86.5392 141.967 87.1575 142.795C87.7875 143.623 88.3417 144.358 88.82 145H84.0775C83.3308 143.973 82.6075 142.987 81.9075 142.042C81.2192 141.086 80.5425 140.152 79.8775 139.242L75.52 133.257L78.005 135.392H72.2475V132.05H76.78C78.0517 132.05 79.1017 131.904 79.93 131.612C80.77 131.309 81.3942 130.819 81.8025 130.142C82.2225 129.466 82.4325 128.562 82.4325 127.43C82.4325 126.508 82.2867 125.779 81.995 125.242C81.7033 124.706 81.3183 124.303 80.84 124.035C80.3733 123.767 79.86 123.592 79.3 123.51C78.74 123.428 78.1917 123.387 77.655 123.387H70.1125L72.965 120.675C72.965 122.11 72.965 123.475 72.965 124.77C72.965 126.065 72.965 127.477 72.965 129.005V136.792C72.965 138.344 72.965 139.756 72.965 141.027C72.965 142.299 72.965 143.623 72.965 145H68.94ZM120.661 145C120.661 143.623 120.661 142.299 120.661 141.027C120.661 139.756 120.661 138.344 120.661 136.792V128.375C120.661 126.812 120.661 125.377 120.661 124.07C120.661 122.763 120.661 121.422 120.661 120.045H136.551V123.51C135.419 123.51 134.206 123.51 132.911 123.51C131.616 123.51 130.087 123.51 128.326 123.51H122.393L124.686 120.675C124.686 122.052 124.686 123.393 124.686 124.7C124.686 125.995 124.686 127.43 124.686 129.005V136.163C124.686 137.702 124.686 139.114 124.686 140.397C124.686 141.669 124.686 142.993 124.686 144.37L122.638 141.535H128.658C130.128 141.535 131.522 141.535 132.841 141.535C134.159 141.535 135.425 141.535 136.638 141.535V145H120.661ZM123.776 134.045V130.702H128.518C130.105 130.702 131.464 130.702 132.596 130.702C133.739 130.702 134.842 130.702 135.903 130.702V134.045C134.795 134.045 133.669 134.045 132.526 134.045C131.394 134.045 130.052 134.045 128.501 134.045H123.776ZM181.061 145.42C179.066 145.42 177.269 145.105 175.671 144.475C174.073 143.833 172.714 142.935 171.594 141.78C170.474 140.625 169.616 139.26 169.021 137.685C168.426 136.11 168.129 134.383 168.129 132.505C168.129 129.997 168.642 127.768 169.669 125.82C170.695 123.872 172.142 122.343 174.009 121.235C175.875 120.127 178.074 119.572 180.606 119.572C181.423 119.572 182.222 119.631 183.004 119.747C183.785 119.852 184.526 120.004 185.226 120.202C185.938 120.389 186.597 120.599 187.204 120.832C187.81 121.054 188.341 121.293 188.796 121.55L188.446 125.435C187.548 124.887 186.673 124.443 185.821 124.105C184.969 123.767 184.141 123.522 183.336 123.37C182.531 123.207 181.749 123.125 180.991 123.125C179.334 123.125 177.859 123.504 176.564 124.262C175.269 125.009 174.254 126.082 173.519 127.482C172.784 128.882 172.416 130.557 172.416 132.505C172.416 133.8 172.603 135.019 172.976 136.163C173.361 137.294 173.933 138.297 174.691 139.172C175.449 140.036 176.4 140.718 177.544 141.22C178.687 141.71 180.011 141.955 181.516 141.955C182.099 141.955 182.677 141.92 183.249 141.85C183.832 141.768 184.409 141.646 184.981 141.482C185.564 141.319 186.136 141.097 186.696 140.817C187.268 140.537 187.828 140.205 188.376 139.82L188.656 143.67C188.154 143.962 187.606 144.224 187.011 144.457C186.416 144.679 185.792 144.86 185.139 145C184.485 145.14 183.814 145.245 183.126 145.315C182.438 145.385 181.749 145.42 181.061 145.42Z" fill="#EA1010"/>
<path d="M232.899 145.42C230.729 145.42 228.839 145.076 227.229 144.387C225.63 143.699 224.3 142.754 223.239 141.552C222.189 140.351 221.401 138.974 220.876 137.422C220.351 135.871 220.089 134.232 220.089 132.505C220.089 130.09 220.573 127.908 221.541 125.96C222.521 124 223.95 122.448 225.829 121.305C227.719 120.15 230.034 119.572 232.776 119.572C234.853 119.572 236.679 119.905 238.254 120.57C239.84 121.235 241.164 122.162 242.226 123.352C243.299 124.531 244.104 125.902 244.641 127.465C245.178 129.028 245.446 130.708 245.446 132.505C245.446 134.967 244.956 137.172 243.976 139.12C242.996 141.068 241.567 142.608 239.689 143.74C237.822 144.86 235.559 145.42 232.899 145.42ZM232.811 141.955C234.246 141.955 235.489 141.698 236.539 141.185C237.589 140.672 238.458 139.972 239.146 139.085C239.834 138.198 240.342 137.189 240.669 136.057C241.007 134.926 241.176 133.742 241.176 132.505C241.176 131.175 240.995 129.938 240.634 128.795C240.272 127.652 239.735 126.648 239.024 125.785C238.324 124.922 237.454 124.251 236.416 123.772C235.378 123.282 234.176 123.037 232.811 123.037C231.399 123.037 230.169 123.288 229.119 123.79C228.069 124.292 227.188 124.986 226.476 125.872C225.776 126.759 225.251 127.768 224.901 128.9C224.551 130.032 224.376 131.233 224.376 132.505C224.376 133.765 224.545 134.961 224.884 136.092C225.222 137.224 225.735 138.233 226.424 139.12C227.124 139.995 228.004 140.689 229.066 141.202C230.128 141.704 231.376 141.955 232.811 141.955ZM278.01 145C278.01 143.623 278.01 142.299 278.01 141.027C278.01 139.756 278.01 138.344 278.01 136.792V128.375C278.01 126.812 278.01 125.377 278.01 124.07C278.01 122.763 278.01 121.422 278.01 120.045C278.71 120.045 279.527 120.045 280.46 120.045C281.394 120.045 282.397 120.045 283.47 120.045C284.555 120.045 285.687 120.045 286.865 120.045C288.814 120.045 290.447 120.272 291.765 120.727C293.084 121.171 294.075 121.9 294.74 122.915C295.405 123.918 295.738 125.272 295.738 126.975C295.738 128.363 295.464 129.629 294.915 130.772C294.379 131.916 293.492 132.837 292.255 133.537C291.019 134.226 289.356 134.576 287.268 134.587L288.72 132.855L292.465 137.807C293.049 138.577 293.667 139.394 294.32 140.257C294.974 141.121 295.609 141.967 296.228 142.795C296.858 143.623 297.412 144.358 297.89 145H293.148C292.401 143.973 291.678 142.987 290.978 142.042C290.289 141.086 289.613 140.152 288.948 139.242L284.59 133.257L287.075 135.392H281.318V132.05H285.85C287.122 132.05 288.172 131.904 289 131.612C289.84 131.309 290.464 130.819 290.873 130.142C291.293 129.466 291.503 128.562 291.503 127.43C291.503 126.508 291.357 125.779 291.065 125.242C290.774 124.706 290.389 124.303 289.91 124.035C289.444 123.767 288.93 123.592 288.37 123.51C287.81 123.428 287.262 123.387 286.725 123.387H279.183L282.035 120.675C282.035 122.11 282.035 123.475 282.035 124.77C282.035 126.065 282.035 127.477 282.035 129.005V136.792C282.035 138.344 282.035 139.756 282.035 141.027C282.035 142.299 282.035 143.623 282.035 145H278.01ZM329.749 145C329.749 143.623 329.749 142.299 329.749 141.027C329.749 139.756 329.749 138.344 329.749 136.792V128.392C329.749 126.806 329.749 125.365 329.749 124.07C329.749 122.775 329.749 121.433 329.749 120.045C330.764 120.045 331.773 120.045 332.776 120.045C333.791 120.045 334.806 120.045 335.821 120.045C336.836 120.045 337.874 120.045 338.936 120.045C340.849 120.045 342.547 120.325 344.029 120.885C345.522 121.433 346.782 122.244 347.809 123.317C348.835 124.379 349.611 125.674 350.136 127.202C350.673 128.731 350.941 130.475 350.941 132.435C350.941 134.197 350.702 135.842 350.224 137.37C349.757 138.887 349.01 140.217 347.984 141.36C346.969 142.503 345.627 143.396 343.959 144.037C342.29 144.679 340.26 145 337.869 145C336.83 145 335.862 145 334.964 145C334.065 145 333.19 145 332.339 145C331.499 145 330.635 145 329.749 145ZM333.861 141.64H337.886C340.044 141.64 341.765 141.237 343.049 140.432C344.332 139.627 345.254 138.525 345.814 137.125C346.374 135.725 346.654 134.138 346.654 132.365C346.654 131.012 346.49 129.787 346.164 128.69C345.837 127.582 345.329 126.637 344.641 125.855C343.953 125.062 343.078 124.455 342.016 124.035C340.954 123.615 339.689 123.405 338.219 123.405H333.861C333.861 124.327 333.861 125.254 333.861 126.187C333.861 127.109 333.861 128.13 333.861 129.25V135.9C333.861 136.997 333.861 138.006 333.861 138.927C333.861 139.837 333.861 140.742 333.861 141.64ZM390.976 145.403C389.937 145.403 388.882 145.309 387.808 145.123C386.747 144.947 385.755 144.72 384.833 144.44C383.923 144.16 383.188 143.88 382.628 143.6L382.961 139.767C383.766 140.222 384.594 140.613 385.446 140.94C386.309 141.255 387.178 141.506 388.053 141.692C388.94 141.867 389.821 141.955 390.696 141.955C391.652 141.955 392.504 141.832 393.251 141.587C393.997 141.331 394.581 140.94 395.001 140.415C395.432 139.878 395.648 139.19 395.648 138.35C395.648 137.545 395.409 136.88 394.931 136.355C394.464 135.83 393.782 135.375 392.883 134.99C391.985 134.593 390.912 134.208 389.663 133.835C388.1 133.357 386.764 132.826 385.656 132.242C384.547 131.647 383.702 130.907 383.118 130.02C382.547 129.133 382.261 127.99 382.261 126.59C382.261 125.237 382.57 124.029 383.188 122.967C383.818 121.906 384.752 121.077 385.988 120.482C387.237 119.876 388.794 119.572 390.661 119.572C391.407 119.572 392.154 119.625 392.901 119.73C393.659 119.835 394.382 119.975 395.071 120.15C395.771 120.313 396.407 120.506 396.978 120.727C397.55 120.949 398.046 121.177 398.466 121.41L398.098 125.225C397.387 124.747 396.628 124.35 395.823 124.035C395.03 123.708 394.242 123.463 393.461 123.3C392.691 123.125 391.973 123.037 391.308 123.037C390.457 123.037 389.675 123.16 388.963 123.405C388.252 123.65 387.68 124.023 387.248 124.525C386.817 125.015 386.601 125.645 386.601 126.415C386.601 127.115 386.787 127.704 387.161 128.182C387.534 128.661 388.123 129.087 388.928 129.46C389.733 129.833 390.772 130.218 392.043 130.615C394.038 131.245 395.613 131.887 396.768 132.54C397.923 133.182 398.74 133.94 399.218 134.815C399.708 135.69 399.953 136.787 399.953 138.105C399.953 139.517 399.638 140.771 399.008 141.867C398.39 142.964 397.416 143.827 396.086 144.457C394.767 145.088 393.064 145.403 390.976 145.403Z" fill="white"/>
</svg>
