<svg width="491" height="368" viewBox="0 0 491 368" fill="none" xmlns="http://www.w3.org/2000/svg">
<path d="M125.1 307.7C108.5 307.7 93.55 304.9 80.25 299.3C67.05 293.6 55.8 285.75 46.5 275.75C37.3 265.65 30.25 253.9 25.35 240.5C20.45 227.1 18 212.7 18 197.3C18 175.6 22.5 156.5 31.5 140C40.5 123.5 52.75 110.65 68.25 101.45C83.75 92.15 101.3 87.5 120.9 87.5C128.1 87.5 135.05 88.05 141.75 89.15C148.45 90.25 154.7 91.75 160.5 93.65C166.4 95.45 171.75 97.4 176.55 99.5C181.45 101.5 185.6 103.5 189 105.5L187.5 116C179.8 111.6 172.2 108.05 164.7 105.35C157.2 102.55 149.75 100.55 142.35 99.35C135.05 98.05 127.8 97.4 120.6 97.4C102.5 97.4 86.45 101.55 72.45 109.85C58.55 118.15 47.65 129.8 39.75 144.8C31.85 159.8 27.9 177.4 27.9 197.6C27.9 211.5 29.95 224.5 34.05 236.6C38.15 248.7 44.25 259.35 52.35 268.55C60.55 277.65 70.65 284.8 82.65 290C94.75 295.2 108.7 297.8 124.5 297.8C129.9 297.8 135.25 297.5 140.55 296.9C145.95 296.2 151.25 295.2 156.45 293.9C161.65 292.5 166.7 290.7 171.6 288.5C176.5 286.2 181.2 283.5 185.7 280.4L187.5 290.9C183.3 293.8 178.7 296.35 173.7 298.55C168.8 300.65 163.65 302.4 158.25 303.8C152.95 305.1 147.5 306.05 141.9 306.65C136.3 307.35 130.7 307.7 125.1 307.7Z" fill="#FFFCFC"/>
<path d="M66.94 208C66.94 206.623 66.94 205.299 66.94 204.027C66.94 202.756 66.94 201.344 66.94 199.792V191.375C66.94 189.812 66.94 188.377 66.94 187.07C66.94 185.763 66.94 184.422 66.94 183.045C67.64 183.045 68.4567 183.045 69.39 183.045C70.3233 183.045 71.3267 183.045 72.4 183.045C73.485 183.045 74.6167 183.045 75.795 183.045C77.7433 183.045 79.3767 183.272 80.695 183.727C82.0133 184.171 83.005 184.9 83.67 185.915C84.335 186.918 84.6675 188.272 84.6675 189.975C84.6675 191.363 84.3933 192.629 83.845 193.772C83.3083 194.916 82.4217 195.837 81.185 196.537C79.9483 197.226 78.2858 197.576 76.1975 197.587L77.65 195.855L81.395 200.807C81.9783 201.577 82.5967 202.394 83.25 203.257C83.9033 204.121 84.5392 204.967 85.1575 205.795C85.7875 206.623 86.3417 207.358 86.82 208H82.0775C81.3308 206.973 80.6075 205.987 79.9075 205.042C79.2192 204.086 78.5425 203.152 77.8775 202.242L73.52 196.257L76.005 198.392H70.2475V195.05H74.78C76.0517 195.05 77.1017 194.904 77.93 194.612C78.77 194.309 79.3942 193.819 79.8025 193.142C80.2225 192.466 80.4325 191.562 80.4325 190.43C80.4325 189.508 80.2867 188.779 79.995 188.242C79.7033 187.706 79.3183 187.303 78.84 187.035C78.3733 186.767 77.86 186.592 77.3 186.51C76.74 186.428 76.1917 186.387 75.655 186.387H68.1125L70.965 183.675C70.965 185.11 70.965 186.475 70.965 187.77C70.965 189.065 70.965 190.477 70.965 192.005V199.792C70.965 201.344 70.965 202.756 70.965 204.027C70.965 205.299 70.965 206.623 70.965 208H66.94ZM118.661 208C118.661 206.623 118.661 205.299 118.661 204.027C118.661 202.756 118.661 201.344 118.661 199.792V191.375C118.661 189.812 118.661 188.377 118.661 187.07C118.661 185.763 118.661 184.422 118.661 183.045H134.551V186.51C133.419 186.51 132.206 186.51 130.911 186.51C129.616 186.51 128.087 186.51 126.326 186.51H120.393L122.686 183.675C122.686 185.052 122.686 186.393 122.686 187.7C122.686 188.995 122.686 190.43 122.686 192.005V199.163C122.686 200.702 122.686 202.114 122.686 203.397C122.686 204.669 122.686 205.993 122.686 207.37L120.638 204.535H126.658C128.128 204.535 129.522 204.535 130.841 204.535C132.159 204.535 133.425 204.535 134.638 204.535V208H118.661ZM121.776 197.045V193.702H126.518C128.105 193.702 129.464 193.702 130.596 193.702C131.739 193.702 132.842 193.702 133.903 193.702V197.045C132.795 197.045 131.669 197.045 130.526 197.045C129.394 197.045 128.052 197.045 126.501 197.045H121.776ZM179.061 208.42C177.066 208.42 175.269 208.105 173.671 207.475C172.073 206.833 170.714 205.935 169.594 204.78C168.474 203.625 167.616 202.26 167.021 200.685C166.426 199.11 166.129 197.383 166.129 195.505C166.129 192.997 166.642 190.768 167.669 188.82C168.695 186.872 170.142 185.343 172.009 184.235C173.875 183.127 176.074 182.572 178.606 182.572C179.423 182.572 180.222 182.631 181.004 182.747C181.785 182.852 182.526 183.004 183.226 183.202C183.938 183.389 184.597 183.599 185.204 183.832C185.81 184.054 186.341 184.293 186.796 184.55L186.446 188.435C185.548 187.887 184.673 187.443 183.821 187.105C182.969 186.767 182.141 186.522 181.336 186.37C180.531 186.207 179.749 186.125 178.991 186.125C177.334 186.125 175.859 186.504 174.564 187.262C173.269 188.009 172.254 189.082 171.519 190.482C170.784 191.882 170.416 193.557 170.416 195.505C170.416 196.8 170.603 198.019 170.976 199.163C171.361 200.294 171.933 201.297 172.691 202.172C173.449 203.036 174.4 203.718 175.544 204.22C176.687 204.71 178.011 204.955 179.516 204.955C180.099 204.955 180.677 204.92 181.249 204.85C181.832 204.768 182.409 204.646 182.981 204.482C183.564 204.319 184.136 204.097 184.696 203.817C185.268 203.537 185.828 203.205 186.376 202.82L186.656 206.67C186.154 206.962 185.606 207.224 185.011 207.457C184.416 207.679 183.792 207.86 183.139 208C182.485 208.14 181.814 208.245 181.126 208.315C180.438 208.385 179.749 208.42 179.061 208.42Z" fill="#EA1010"/>
<path d="M230.899 208.42C228.729 208.42 226.839 208.076 225.229 207.387C223.63 206.699 222.3 205.754 221.239 204.552C220.189 203.351 219.401 201.974 218.876 200.422C218.351 198.871 218.089 197.232 218.089 195.505C218.089 193.09 218.573 190.908 219.541 188.96C220.521 187 221.95 185.448 223.829 184.305C225.719 183.15 228.034 182.572 230.776 182.572C232.853 182.572 234.679 182.905 236.254 183.57C237.84 184.235 239.164 185.162 240.226 186.352C241.299 187.531 242.104 188.902 242.641 190.465C243.178 192.028 243.446 193.708 243.446 195.505C243.446 197.967 242.956 200.172 241.976 202.12C240.996 204.068 239.567 205.608 237.689 206.74C235.822 207.86 233.559 208.42 230.899 208.42ZM230.811 204.955C232.246 204.955 233.489 204.698 234.539 204.185C235.589 203.672 236.458 202.972 237.146 202.085C237.834 201.198 238.342 200.189 238.669 199.057C239.007 197.926 239.176 196.742 239.176 195.505C239.176 194.175 238.995 192.938 238.634 191.795C238.272 190.652 237.735 189.648 237.024 188.785C236.324 187.922 235.454 187.251 234.416 186.772C233.378 186.282 232.176 186.037 230.811 186.037C229.399 186.037 228.169 186.288 227.119 186.79C226.069 187.292 225.188 187.986 224.476 188.872C223.776 189.759 223.251 190.768 222.901 191.9C222.551 193.032 222.376 194.233 222.376 195.505C222.376 196.765 222.545 197.961 222.884 199.092C223.222 200.224 223.735 201.233 224.424 202.12C225.124 202.995 226.004 203.689 227.066 204.202C228.128 204.704 229.376 204.955 230.811 204.955ZM276.01 208C276.01 206.623 276.01 205.299 276.01 204.027C276.01 202.756 276.01 201.344 276.01 199.792V191.375C276.01 189.812 276.01 188.377 276.01 187.07C276.01 185.763 276.01 184.422 276.01 183.045C276.71 183.045 277.527 183.045 278.46 183.045C279.394 183.045 280.397 183.045 281.47 183.045C282.555 183.045 283.687 183.045 284.865 183.045C286.814 183.045 288.447 183.272 289.765 183.727C291.084 184.171 292.075 184.9 292.74 185.915C293.405 186.918 293.738 188.272 293.738 189.975C293.738 191.363 293.464 192.629 292.915 193.772C292.379 194.916 291.492 195.837 290.255 196.537C289.019 197.226 287.356 197.576 285.268 197.587L286.72 195.855L290.465 200.807C291.049 201.577 291.667 202.394 292.32 203.257C292.974 204.121 293.609 204.967 294.228 205.795C294.858 206.623 295.412 207.358 295.89 208H291.148C290.401 206.973 289.678 205.987 288.978 205.042C288.289 204.086 287.613 203.152 286.948 202.242L282.59 196.257L285.075 198.392H279.318V195.05H283.85C285.122 195.05 286.172 194.904 287 194.612C287.84 194.309 288.464 193.819 288.873 193.142C289.293 192.466 289.503 191.562 289.503 190.43C289.503 189.508 289.357 188.779 289.065 188.242C288.774 187.706 288.389 187.303 287.91 187.035C287.444 186.767 286.93 186.592 286.37 186.51C285.81 186.428 285.262 186.387 284.725 186.387H277.183L280.035 183.675C280.035 185.11 280.035 186.475 280.035 187.77C280.035 189.065 280.035 190.477 280.035 192.005V199.792C280.035 201.344 280.035 202.756 280.035 204.027C280.035 205.299 280.035 206.623 280.035 208H276.01ZM327.749 208C327.749 206.623 327.749 205.299 327.749 204.027C327.749 202.756 327.749 201.344 327.749 199.792V191.392C327.749 189.806 327.749 188.365 327.749 187.07C327.749 185.775 327.749 184.433 327.749 183.045C328.764 183.045 329.773 183.045 330.776 183.045C331.791 183.045 332.806 183.045 333.821 183.045C334.836 183.045 335.874 183.045 336.936 183.045C338.849 183.045 340.547 183.325 342.029 183.885C343.522 184.433 344.782 185.244 345.809 186.317C346.835 187.379 347.611 188.674 348.136 190.202C348.673 191.731 348.941 193.475 348.941 195.435C348.941 197.197 348.702 198.842 348.224 200.37C347.757 201.887 347.01 203.217 345.984 204.36C344.969 205.503 343.627 206.396 341.959 207.037C340.29 207.679 338.26 208 335.869 208C334.83 208 333.862 208 332.964 208C332.065 208 331.19 208 330.339 208C329.499 208 328.635 208 327.749 208ZM331.861 204.64H335.886C338.044 204.64 339.765 204.237 341.049 203.432C342.332 202.627 343.254 201.525 343.814 200.125C344.374 198.725 344.654 197.138 344.654 195.365C344.654 194.012 344.49 192.787 344.164 191.69C343.837 190.582 343.329 189.637 342.641 188.855C341.953 188.062 341.078 187.455 340.016 187.035C338.954 186.615 337.689 186.405 336.219 186.405H331.861C331.861 187.327 331.861 188.254 331.861 189.187C331.861 190.109 331.861 191.13 331.861 192.25V198.9C331.861 199.997 331.861 201.006 331.861 201.927C331.861 202.837 331.861 203.742 331.861 204.64ZM388.976 208.403C387.937 208.403 386.882 208.309 385.808 208.123C384.747 207.947 383.755 207.72 382.833 207.44C381.923 207.16 381.188 206.88 380.628 206.6L380.961 202.767C381.766 203.222 382.594 203.613 383.446 203.94C384.309 204.255 385.178 204.506 386.053 204.692C386.94 204.867 387.821 204.955 388.696 204.955C389.652 204.955 390.504 204.832 391.251 204.587C391.997 204.331 392.581 203.94 393.001 203.415C393.432 202.878 393.648 202.19 393.648 201.35C393.648 200.545 393.409 199.88 392.931 199.355C392.464 198.83 391.782 198.375 390.883 197.99C389.985 197.593 388.912 197.208 387.663 196.835C386.1 196.357 384.764 195.826 383.656 195.242C382.547 194.647 381.702 193.907 381.118 193.02C380.547 192.133 380.261 190.99 380.261 189.59C380.261 188.237 380.57 187.029 381.188 185.967C381.818 184.906 382.752 184.077 383.988 183.482C385.237 182.876 386.794 182.572 388.661 182.572C389.407 182.572 390.154 182.625 390.901 182.73C391.659 182.835 392.382 182.975 393.071 183.15C393.771 183.313 394.407 183.506 394.978 183.727C395.55 183.949 396.046 184.177 396.466 184.41L396.098 188.225C395.387 187.747 394.628 187.35 393.823 187.035C393.03 186.708 392.242 186.463 391.461 186.3C390.691 186.125 389.973 186.037 389.308 186.037C388.457 186.037 387.675 186.16 386.963 186.405C386.252 186.65 385.68 187.023 385.248 187.525C384.817 188.015 384.601 188.645 384.601 189.415C384.601 190.115 384.787 190.704 385.161 191.182C385.534 191.661 386.123 192.087 386.928 192.46C387.733 192.833 388.772 193.218 390.043 193.615C392.038 194.245 393.613 194.887 394.768 195.54C395.923 196.182 396.74 196.94 397.218 197.815C397.708 198.69 397.953 199.787 397.953 201.105C397.953 202.517 397.638 203.771 397.008 204.867C396.39 205.964 395.416 206.827 394.086 207.457C392.767 208.088 391.064 208.403 388.976 208.403Z" fill="#FFFAFA"/>
</svg>
