<svg width="504" height="368" viewBox="0 0 504 368" fill="none" xmlns="http://www.w3.org/2000/svg">
<path d="M125.1 307.7C108.5 307.7 93.55 304.9 80.25 299.3C67.05 293.6 55.8 285.75 46.5 275.75C37.3 265.65 30.25 253.9 25.35 240.5C20.45 227.1 18 212.7 18 197.3C18 175.6 22.5 156.5 31.5 140C40.5 123.5 52.75 110.65 68.25 101.45C83.75 92.15 101.3 87.5 120.9 87.5C128.1 87.5 135.05 88.05 141.75 89.15C148.45 90.25 154.7 91.75 160.5 93.65C166.4 95.45 171.75 97.4 176.55 99.5C181.45 101.5 185.6 103.5 189 105.5L187.5 116C179.8 111.6 172.2 108.05 164.7 105.35C157.2 102.55 149.75 100.55 142.35 99.35C135.05 98.05 127.8 97.4 120.6 97.4C102.5 97.4 86.45 101.55 72.45 109.85C58.55 118.15 47.65 129.8 39.75 144.8C31.85 159.8 27.9 177.4 27.9 197.6C27.9 211.5 29.95 224.5 34.05 236.6C38.15 248.7 44.25 259.35 52.35 268.55C60.55 277.65 70.65 284.8 82.65 290C94.75 295.2 108.7 297.8 124.5 297.8C129.9 297.8 135.25 297.5 140.55 296.9C145.95 296.2 151.25 295.2 156.45 293.9C161.65 292.5 166.7 290.7 171.6 288.5C176.5 286.2 181.2 283.5 185.7 280.4L187.5 290.9C183.3 293.8 178.7 296.35 173.7 298.55C168.8 300.65 163.65 302.4 158.25 303.8C152.95 305.1 147.5 306.05 141.9 306.65C136.3 307.35 130.7 307.7 125.1 307.7Z" fill="#FFFCFC"/>
<path d="M79.7034 207.677C79.7034 206.301 79.7034 204.977 79.7034 203.705C79.7034 202.433 79.7034 201.022 79.7034 199.47V191.052C79.7034 189.489 79.7034 188.054 79.7034 186.747C79.7034 185.441 79.7034 184.099 79.7034 182.722C80.4034 182.722 81.2201 182.722 82.1534 182.722C83.0867 182.722 84.0901 182.722 85.1634 182.722C86.2484 182.722 87.3801 182.722 88.5584 182.722C90.5067 182.722 92.1401 182.95 93.4584 183.405C94.7767 183.848 95.7684 184.577 96.4334 185.592C97.0984 186.596 97.4309 187.949 97.4309 189.652C97.4309 191.041 97.1567 192.307 96.6084 193.45C96.0717 194.593 95.1851 195.515 93.9484 196.215C92.7117 196.903 91.0492 197.253 88.9609 197.265L90.4134 195.532L94.1584 200.485C94.7417 201.255 95.3601 202.072 96.0134 202.935C96.6667 203.798 97.3026 204.644 97.9209 205.472C98.5509 206.301 99.1051 207.036 99.5834 207.677H94.8409C94.0942 206.651 93.3709 205.665 92.6709 204.72C91.9826 203.763 91.3059 202.83 90.6409 201.92L86.2834 195.935L88.7684 198.07H83.0109V194.727H87.5434C88.8151 194.727 89.8651 194.582 90.6934 194.29C91.5334 193.987 92.1576 193.497 92.5659 192.82C92.9859 192.143 93.1959 191.239 93.1959 190.107C93.1959 189.186 93.0501 188.457 92.7584 187.92C92.4667 187.383 92.0817 186.981 91.6034 186.712C91.1367 186.444 90.6234 186.269 90.0634 186.187C89.5034 186.106 88.9551 186.065 88.4184 186.065H80.8759L83.7284 183.352C83.7284 184.787 83.7284 186.152 83.7284 187.447C83.7284 188.742 83.7284 190.154 83.7284 191.682V199.47C83.7284 201.022 83.7284 202.433 83.7284 203.705C83.7284 204.977 83.7284 206.301 83.7284 207.677H79.7034ZM131.424 207.677C131.424 206.301 131.424 204.977 131.424 203.705C131.424 202.433 131.424 201.022 131.424 199.47V191.052C131.424 189.489 131.424 188.054 131.424 186.747C131.424 185.441 131.424 184.099 131.424 182.722H147.314V186.187C146.182 186.187 144.969 186.187 143.674 186.187C142.379 186.187 140.851 186.187 139.089 186.187H133.157L135.449 183.352C135.449 184.729 135.449 186.071 135.449 187.377C135.449 188.672 135.449 190.107 135.449 191.682V198.84C135.449 200.38 135.449 201.792 135.449 203.075C135.449 204.347 135.449 205.671 135.449 207.047L133.402 204.212H139.422C140.892 204.212 142.286 204.212 143.604 204.212C144.922 204.212 146.188 204.212 147.402 204.212V207.677H131.424ZM134.539 196.722V193.38H139.282C140.868 193.38 142.227 193.38 143.359 193.38C144.502 193.38 145.605 193.38 146.667 193.38V196.722C145.558 196.722 144.432 196.722 143.289 196.722C142.157 196.722 140.816 196.722 139.264 196.722H134.539ZM191.825 208.097C189.83 208.097 188.033 207.782 186.435 207.152C184.836 206.511 183.477 205.612 182.357 204.457C181.237 203.302 180.38 201.937 179.785 200.362C179.19 198.787 178.892 197.061 178.892 195.182C178.892 192.674 179.405 190.446 180.432 188.497C181.459 186.549 182.905 185.021 184.772 183.912C186.639 182.804 188.838 182.25 191.37 182.25C192.186 182.25 192.985 182.308 193.767 182.425C194.549 182.53 195.29 182.682 195.99 182.88C196.701 183.067 197.36 183.277 197.967 183.51C198.574 183.732 199.105 183.971 199.56 184.227L199.21 188.112C198.311 187.564 197.436 187.121 196.585 186.782C195.733 186.444 194.905 186.199 194.1 186.047C193.295 185.884 192.513 185.802 191.755 185.802C190.098 185.802 188.622 186.182 187.327 186.94C186.032 187.687 185.017 188.76 184.282 190.16C183.547 191.56 183.18 193.234 183.18 195.182C183.18 196.477 183.366 197.697 183.74 198.84C184.125 199.972 184.696 200.975 185.455 201.85C186.213 202.713 187.164 203.396 188.307 203.897C189.45 204.387 190.775 204.632 192.28 204.632C192.863 204.632 193.44 204.597 194.012 204.527C194.595 204.446 195.173 204.323 195.745 204.16C196.328 203.997 196.9 203.775 197.46 203.495C198.031 203.215 198.591 202.882 199.14 202.497L199.42 206.347C198.918 206.639 198.37 206.902 197.775 207.135C197.18 207.357 196.555 207.537 195.902 207.677C195.249 207.817 194.578 207.922 193.89 207.992C193.201 208.062 192.513 208.097 191.825 208.097Z" fill="#EA1010"/>
<path d="M243.662 208.097C241.492 208.097 239.602 207.753 237.992 207.065C236.394 206.377 235.064 205.432 234.002 204.23C232.952 203.028 232.164 201.652 231.639 200.1C231.114 198.548 230.852 196.909 230.852 195.182C230.852 192.767 231.336 190.586 232.304 188.637C233.284 186.677 234.714 185.126 236.592 183.982C238.482 182.827 240.798 182.25 243.539 182.25C245.616 182.25 247.442 182.582 249.017 183.247C250.604 183.912 251.928 184.84 252.989 186.03C254.063 187.208 254.868 188.579 255.404 190.142C255.941 191.706 256.209 193.386 256.209 195.182C256.209 197.644 255.719 199.849 254.739 201.797C253.759 203.746 252.33 205.286 250.452 206.417C248.585 207.537 246.322 208.097 243.662 208.097ZM243.574 204.632C245.009 204.632 246.252 204.376 247.302 203.862C248.352 203.349 249.221 202.649 249.909 201.762C250.598 200.876 251.105 199.867 251.432 198.735C251.77 197.603 251.939 196.419 251.939 195.182C251.939 193.852 251.759 192.616 251.397 191.472C251.035 190.329 250.499 189.326 249.787 188.462C249.087 187.599 248.218 186.928 247.179 186.45C246.141 185.96 244.939 185.715 243.574 185.715C242.163 185.715 240.932 185.966 239.882 186.467C238.832 186.969 237.951 187.663 237.239 188.55C236.539 189.437 236.014 190.446 235.664 191.577C235.314 192.709 235.139 193.911 235.139 195.182C235.139 196.442 235.309 197.638 235.647 198.77C235.985 199.902 236.499 200.911 237.187 201.797C237.887 202.672 238.768 203.367 239.829 203.88C240.891 204.382 242.139 204.632 243.574 204.632ZM288.774 207.677C288.774 206.301 288.774 204.977 288.774 203.705C288.774 202.433 288.774 201.022 288.774 199.47V191.052C288.774 189.489 288.774 188.054 288.774 186.747C288.774 185.441 288.774 184.099 288.774 182.722C289.474 182.722 290.29 182.722 291.224 182.722C292.157 182.722 293.16 182.722 294.234 182.722C295.319 182.722 296.45 182.722 297.629 182.722C299.577 182.722 301.21 182.95 302.529 183.405C303.847 183.848 304.839 184.577 305.504 185.592C306.169 186.596 306.501 187.949 306.501 189.652C306.501 191.041 306.227 192.307 305.679 193.45C305.142 194.593 304.255 195.515 303.019 196.215C301.782 196.903 300.12 197.253 298.031 197.265L299.484 195.532L303.229 200.485C303.812 201.255 304.43 202.072 305.084 202.935C305.737 203.798 306.373 204.644 306.991 205.472C307.621 206.301 308.175 207.036 308.654 207.677H303.911C303.165 206.651 302.441 205.665 301.741 204.72C301.053 203.763 300.376 202.83 299.711 201.92L295.354 195.935L297.839 198.07H292.081V194.727H296.614C297.885 194.727 298.935 194.582 299.764 194.29C300.604 193.987 301.228 193.497 301.636 192.82C302.056 192.143 302.266 191.239 302.266 190.107C302.266 189.186 302.12 188.457 301.829 187.92C301.537 187.383 301.152 186.981 300.674 186.712C300.207 186.444 299.694 186.269 299.134 186.187C298.574 186.106 298.025 186.065 297.489 186.065H289.946L292.799 183.352C292.799 184.787 292.799 186.152 292.799 187.447C292.799 188.742 292.799 190.154 292.799 191.682V199.47C292.799 201.022 292.799 202.433 292.799 203.705C292.799 204.977 292.799 206.301 292.799 207.677H288.774ZM340.512 207.677C340.512 206.301 340.512 204.977 340.512 203.705C340.512 202.433 340.512 201.022 340.512 199.47V191.07C340.512 189.483 340.512 188.042 340.512 186.747C340.512 185.452 340.512 184.111 340.512 182.722C341.527 182.722 342.536 182.722 343.539 182.722C344.554 182.722 345.569 182.722 346.584 182.722C347.599 182.722 348.638 182.722 349.699 182.722C351.613 182.722 353.31 183.002 354.792 183.562C356.285 184.111 357.545 184.922 358.572 185.995C359.599 187.057 360.374 188.352 360.899 189.88C361.436 191.408 361.704 193.152 361.704 195.112C361.704 196.874 361.465 198.519 360.987 200.047C360.52 201.564 359.774 202.894 358.747 204.037C357.732 205.181 356.39 206.073 354.722 206.715C353.054 207.357 351.024 207.677 348.632 207.677C347.594 207.677 346.625 207.677 345.727 207.677C344.829 207.677 343.954 207.677 343.102 207.677C342.262 207.677 341.399 207.677 340.512 207.677ZM344.624 204.317H348.649C350.808 204.317 352.529 203.915 353.812 203.11C355.095 202.305 356.017 201.202 356.577 199.802C357.137 198.402 357.417 196.816 357.417 195.042C357.417 193.689 357.254 192.464 356.927 191.367C356.6 190.259 356.093 189.314 355.404 188.532C354.716 187.739 353.841 187.132 352.779 186.712C351.718 186.292 350.452 186.082 348.982 186.082H344.624C344.624 187.004 344.624 187.932 344.624 188.865C344.624 189.787 344.624 190.807 344.624 191.927V198.577C344.624 199.674 344.624 200.683 344.624 201.605C344.624 202.515 344.624 203.419 344.624 204.317ZM401.739 208.08C400.701 208.08 399.645 207.987 398.572 207.8C397.51 207.625 396.518 207.397 395.597 207.117C394.687 206.837 393.952 206.557 393.392 206.277L393.724 202.445C394.529 202.9 395.358 203.291 396.209 203.617C397.073 203.932 397.942 204.183 398.817 204.37C399.703 204.545 400.584 204.632 401.459 204.632C402.416 204.632 403.268 204.51 404.014 204.265C404.761 204.008 405.344 203.617 405.764 203.092C406.196 202.556 406.412 201.867 406.412 201.027C406.412 200.222 406.173 199.557 405.694 199.032C405.228 198.507 404.545 198.052 403.647 197.667C402.748 197.271 401.675 196.886 400.427 196.512C398.863 196.034 397.528 195.503 396.419 194.92C395.311 194.325 394.465 193.584 393.882 192.697C393.31 191.811 393.024 190.667 393.024 189.267C393.024 187.914 393.333 186.707 393.952 185.645C394.582 184.583 395.515 183.755 396.752 183.16C398 182.553 399.558 182.25 401.424 182.25C402.171 182.25 402.918 182.302 403.664 182.407C404.423 182.512 405.146 182.652 405.834 182.827C406.534 182.991 407.17 183.183 407.742 183.405C408.313 183.627 408.809 183.854 409.229 184.087L408.862 187.902C408.15 187.424 407.392 187.027 406.587 186.712C405.793 186.386 405.006 186.141 404.224 185.977C403.454 185.802 402.737 185.715 402.072 185.715C401.22 185.715 400.438 185.837 399.727 186.082C399.015 186.327 398.443 186.701 398.012 187.202C397.58 187.692 397.364 188.322 397.364 189.092C397.364 189.792 397.551 190.382 397.924 190.86C398.298 191.338 398.887 191.764 399.692 192.137C400.497 192.511 401.535 192.896 402.807 193.292C404.802 193.922 406.377 194.564 407.532 195.217C408.687 195.859 409.503 196.617 409.982 197.492C410.472 198.367 410.717 199.464 410.717 200.782C410.717 202.194 410.402 203.448 409.772 204.545C409.153 205.642 408.179 206.505 406.849 207.135C405.531 207.765 403.828 208.08 401.739 208.08Z" fill="#FFFAFA"/>
</svg>
