<svg width="423" height="243" viewBox="0 0 423 243" fill="none" xmlns="http://www.w3.org/2000/svg">
<path d="M125.1 242.7C108.5 242.7 93.55 239.9 80.25 234.3C67.05 228.6 55.8 220.75 46.5 210.75C37.3 200.65 30.25 188.9 25.35 175.5C20.45 162.1 18 147.7 18 132.3C18 110.6 22.5 91.5 31.5 75C40.5 58.5 52.75 45.65 68.25 36.45C83.75 27.15 101.3 22.5 120.9 22.5C128.1 22.5 135.05 23.05 141.75 24.15C148.45 25.25 154.7 26.75 160.5 28.65C166.4 30.45 171.75 32.4 176.55 34.5C181.45 36.5 185.6 38.5 189 40.5L187.5 51C179.8 46.6 172.2 43.05 164.7 40.35C157.2 37.55 149.75 35.55 142.35 34.35C135.05 33.05 127.8 32.4 120.6 32.4C102.5 32.4 86.45 36.55 72.45 44.85C58.55 53.15 47.65 64.8 39.75 79.8C31.85 94.8 27.9 112.4 27.9 132.6C27.9 146.5 29.95 159.5 34.05 171.6C38.15 183.7 44.25 194.35 52.35 203.55C60.55 212.65 70.65 219.8 82.65 225C94.75 230.2 108.7 232.8 124.5 232.8C129.9 232.8 135.25 232.5 140.55 231.9C145.95 231.2 151.25 230.2 156.45 228.9C161.65 227.5 166.7 225.7 171.6 223.5C176.5 221.2 181.2 218.5 185.7 215.4L187.5 225.9C183.3 228.8 178.7 231.35 173.7 233.55C168.8 235.65 163.65 237.4 158.25 238.8C152.95 240.1 147.5 241.05 141.9 241.65C136.3 242.35 130.7 242.7 125.1 242.7Z" fill="white"/>
<path d="M90.78 141.58C90.8267 141.58 90.85 141.65 90.85 141.79C90.85 141.93 90.8267 142 90.78 142H84.55C84.0367 142 83.08 141.043 81.68 139.13C80.28 137.193 78.5883 134.498 76.605 131.045C76.4183 131.068 76.15 131.08 75.8 131.08C74.89 131.08 74.2483 131.068 73.875 131.045V139.165C73.875 139.888 73.9333 140.413 74.05 140.74C74.1667 141.067 74.3883 141.288 74.715 141.405C75.065 141.522 75.6133 141.58 76.36 141.58C76.4067 141.58 76.43 141.65 76.43 141.79C76.43 141.93 76.4067 142 76.36 142C75.59 142 74.9833 141.988 74.54 141.965L71.88 141.93L69.325 141.965C68.8583 141.988 68.2283 142 67.435 142C67.365 142 67.33 141.93 67.33 141.79C67.33 141.65 67.365 141.58 67.435 141.58C68.1817 141.58 68.7183 141.522 69.045 141.405C69.395 141.288 69.6283 141.067 69.745 140.74C69.885 140.39 69.955 139.865 69.955 139.165V122.96C69.955 122.26 69.8967 121.747 69.78 121.42C69.6633 121.093 69.43 120.872 69.08 120.755C68.73 120.615 68.1933 120.545 67.47 120.545C67.4233 120.545 67.4 120.475 67.4 120.335C67.4 120.195 67.4233 120.125 67.47 120.125L69.325 120.16C70.3983 120.207 71.25 120.23 71.88 120.23C72.5567 120.23 73.3033 120.195 74.12 120.125C74.3767 120.102 74.7033 120.078 75.1 120.055C75.52 120.032 76.01 120.02 76.57 120.02C78.7167 120.02 80.3733 120.417 81.54 121.21C82.73 121.98 83.325 123.065 83.325 124.465C83.325 125.538 82.9983 126.565 82.345 127.545C81.6917 128.525 80.84 129.318 79.79 129.925C81.6567 132.865 83.22 135.163 84.48 136.82C85.7633 138.477 86.895 139.69 87.875 140.46C88.8783 141.207 89.8467 141.58 90.78 141.58ZM73.875 130.03C74.435 130.123 75.1117 130.17 75.905 130.17C76.745 130.17 77.41 130.042 77.9 129.785C78.39 129.528 78.74 129.085 78.95 128.455C79.1833 127.825 79.3 126.938 79.3 125.795C79.3 123.882 79.02 122.563 78.46 121.84C77.9 121.117 77.095 120.755 76.045 120.755C75.2517 120.755 74.6917 120.93 74.365 121.28C74.0383 121.63 73.875 122.213 73.875 123.03V130.03ZM135.798 136.435C135.798 136.388 135.845 136.365 135.938 136.365C136.008 136.365 136.067 136.388 136.113 136.435C136.183 136.458 136.218 136.482 136.218 136.505C135.985 138.325 135.868 139.982 135.868 141.475C135.868 141.662 135.833 141.802 135.763 141.895C135.693 141.965 135.553 142 135.343 142H119.873C119.803 142 119.768 141.93 119.768 141.79C119.768 141.65 119.803 141.58 119.873 141.58C120.62 141.58 121.157 141.522 121.483 141.405C121.833 141.288 122.067 141.067 122.183 140.74C122.3 140.39 122.358 139.865 122.358 139.165V122.96C122.358 122.26 122.3 121.747 122.183 121.42C122.067 121.093 121.833 120.872 121.483 120.755C121.133 120.615 120.597 120.545 119.873 120.545C119.803 120.545 119.768 120.475 119.768 120.335C119.768 120.195 119.803 120.125 119.873 120.125H134.713C134.947 120.125 135.063 120.23 135.063 120.44L135.133 125.095C135.133 125.142 135.063 125.177 134.923 125.2C134.807 125.223 134.737 125.2 134.713 125.13C134.34 123.777 133.71 122.773 132.823 122.12C131.937 121.467 130.77 121.14 129.323 121.14H128.273C127.573 121.14 127.06 121.292 126.733 121.595C126.407 121.898 126.243 122.365 126.243 122.995V130.135H129.148C130.502 130.135 131.54 129.902 132.263 129.435C132.987 128.968 133.348 128.315 133.348 127.475C133.348 127.405 133.407 127.37 133.523 127.37C133.663 127.37 133.733 127.405 133.733 127.475L133.698 130.625L133.733 132.305C133.78 133.098 133.803 133.728 133.803 134.195C133.803 134.242 133.733 134.265 133.593 134.265C133.453 134.265 133.383 134.242 133.383 134.195C133.383 133.238 133.01 132.492 132.263 131.955C131.54 131.395 130.49 131.115 129.113 131.115H126.243V139.025C126.243 139.702 126.372 140.203 126.628 140.53C126.885 140.857 127.293 141.02 127.853 141.02H129.008C130.828 141.02 132.287 140.647 133.383 139.9C134.48 139.153 135.285 137.998 135.798 136.435ZM180.485 119.74C181.512 119.74 182.585 119.833 183.705 120.02C184.825 120.183 185.7 120.405 186.33 120.685C186.54 120.755 186.668 120.848 186.715 120.965C186.785 121.058 186.843 121.233 186.89 121.49L187.31 126.355C187.31 126.425 187.252 126.472 187.135 126.495C187.018 126.518 186.948 126.483 186.925 126.39C186.132 124.547 185.07 123.123 183.74 122.12C182.41 121.117 180.87 120.615 179.12 120.615C176.81 120.615 175.025 121.467 173.765 123.17C172.505 124.873 171.875 127.16 171.875 130.03C171.875 132.177 172.213 134.137 172.89 135.91C173.59 137.683 174.558 139.095 175.795 140.145C177.055 141.172 178.478 141.685 180.065 141.685C181.558 141.685 182.888 141.195 184.055 140.215C185.245 139.212 186.307 137.695 187.24 135.665C187.263 135.572 187.333 135.537 187.45 135.56C187.59 135.583 187.66 135.63 187.66 135.7L187.135 140.46C187.088 140.74 187.03 140.927 186.96 141.02C186.913 141.09 186.785 141.172 186.575 141.265C184.498 142.035 182.363 142.42 180.17 142.42C177.323 142.42 174.943 141.86 173.03 140.74C171.117 139.597 169.705 138.162 168.795 136.435C167.908 134.685 167.465 132.865 167.465 130.975C167.465 128.758 168.06 126.798 169.25 125.095C170.463 123.392 172.062 122.073 174.045 121.14C176.052 120.207 178.198 119.74 180.485 119.74Z" fill="#EA1010"/>
<path d="M229.973 142.42C227.803 142.42 225.866 141.918 224.163 140.915C222.483 139.888 221.176 138.512 220.243 136.785C219.333 135.035 218.878 133.133 218.878 131.08C218.878 128.677 219.485 126.623 220.698 124.92C221.911 123.193 223.463 121.898 225.353 121.035C227.266 120.172 229.215 119.74 231.198 119.74C233.415 119.74 235.363 120.265 237.043 121.315C238.723 122.342 240.006 123.707 240.893 125.41C241.803 127.113 242.258 128.922 242.258 130.835C242.258 132.958 241.698 134.907 240.578 136.68C239.458 138.453 237.953 139.853 236.063 140.88C234.196 141.907 232.166 142.42 229.973 142.42ZM231.128 141.545C232.435 141.545 233.601 141.172 234.628 140.425C235.678 139.655 236.495 138.547 237.078 137.1C237.661 135.63 237.953 133.88 237.953 131.85C237.953 129.703 237.626 127.79 236.973 126.11C236.32 124.407 235.375 123.077 234.138 122.12C232.901 121.163 231.455 120.685 229.798 120.685C227.675 120.685 226.041 121.49 224.898 123.1C223.755 124.687 223.183 126.915 223.183 129.785C223.183 132.048 223.521 134.078 224.198 135.875C224.898 137.648 225.843 139.037 227.033 140.04C228.246 141.043 229.611 141.545 231.128 141.545ZM296.74 141.58C296.787 141.58 296.81 141.65 296.81 141.79C296.81 141.93 296.787 142 296.74 142H290.51C289.997 142 289.04 141.043 287.64 139.13C286.24 137.193 284.548 134.498 282.565 131.045C282.378 131.068 282.11 131.08 281.76 131.08C280.85 131.08 280.208 131.068 279.835 131.045V139.165C279.835 139.888 279.893 140.413 280.01 140.74C280.127 141.067 280.348 141.288 280.675 141.405C281.025 141.522 281.573 141.58 282.32 141.58C282.367 141.58 282.39 141.65 282.39 141.79C282.39 141.93 282.367 142 282.32 142C281.55 142 280.943 141.988 280.5 141.965L277.84 141.93L275.285 141.965C274.818 141.988 274.188 142 273.395 142C273.325 142 273.29 141.93 273.29 141.79C273.29 141.65 273.325 141.58 273.395 141.58C274.142 141.58 274.678 141.522 275.005 141.405C275.355 141.288 275.588 141.067 275.705 140.74C275.845 140.39 275.915 139.865 275.915 139.165V122.96C275.915 122.26 275.857 121.747 275.74 121.42C275.623 121.093 275.39 120.872 275.04 120.755C274.69 120.615 274.153 120.545 273.43 120.545C273.383 120.545 273.36 120.475 273.36 120.335C273.36 120.195 273.383 120.125 273.43 120.125L275.285 120.16C276.358 120.207 277.21 120.23 277.84 120.23C278.517 120.23 279.263 120.195 280.08 120.125C280.337 120.102 280.663 120.078 281.06 120.055C281.48 120.032 281.97 120.02 282.53 120.02C284.677 120.02 286.333 120.417 287.5 121.21C288.69 121.98 289.285 123.065 289.285 124.465C289.285 125.538 288.958 126.565 288.305 127.545C287.652 128.525 286.8 129.318 285.75 129.925C287.617 132.865 289.18 135.163 290.44 136.82C291.723 138.477 292.855 139.69 293.835 140.46C294.838 141.207 295.807 141.58 296.74 141.58ZM279.835 130.03C280.395 130.123 281.072 130.17 281.865 130.17C282.705 130.17 283.37 130.042 283.86 129.785C284.35 129.528 284.7 129.085 284.91 128.455C285.143 127.825 285.26 126.938 285.26 125.795C285.26 123.882 284.98 122.563 284.42 121.84C283.86 121.117 283.055 120.755 282.005 120.755C281.212 120.755 280.652 120.93 280.325 121.28C279.998 121.63 279.835 122.213 279.835 123.03V130.03ZM335.808 142.14C335.062 142.14 334.175 142.105 333.148 142.035C332.775 142.012 332.308 141.988 331.748 141.965C331.212 141.942 330.605 141.93 329.928 141.93L327.338 141.965C326.872 141.988 326.242 142 325.448 142C325.402 142 325.378 141.93 325.378 141.79C325.378 141.65 325.402 141.58 325.448 141.58C326.195 141.58 326.743 141.522 327.093 141.405C327.443 141.288 327.677 141.067 327.793 140.74C327.933 140.39 328.003 139.865 328.003 139.165V122.96C328.003 122.26 327.933 121.747 327.793 121.42C327.677 121.093 327.443 120.872 327.093 120.755C326.767 120.615 326.242 120.545 325.518 120.545C325.448 120.545 325.413 120.475 325.413 120.335C325.413 120.195 325.448 120.125 325.518 120.125L327.373 120.16C328.447 120.207 329.298 120.23 329.928 120.23C330.885 120.23 331.865 120.195 332.868 120.125C334.082 120.078 334.898 120.055 335.318 120.055C337.675 120.055 339.763 120.522 341.583 121.455C343.427 122.388 344.85 123.66 345.853 125.27C346.857 126.88 347.358 128.688 347.358 130.695C347.358 132.958 346.833 134.965 345.783 136.715C344.757 138.442 343.357 139.783 341.583 140.74C339.833 141.673 337.908 142.14 335.808 142.14ZM335.458 141.335C336.952 141.335 338.27 140.962 339.413 140.215C340.557 139.445 341.443 138.313 342.073 136.82C342.727 135.327 343.053 133.542 343.053 131.465C343.053 129.482 342.75 127.685 342.143 126.075C341.537 124.442 340.673 123.158 339.553 122.225C338.433 121.292 337.138 120.825 335.668 120.825C334.222 120.825 333.23 120.965 332.693 121.245C332.157 121.525 331.888 122.12 331.888 123.03V138.78C331.888 139.713 332.133 140.378 332.623 140.775C333.113 141.148 334.058 141.335 335.458 141.335ZM383.166 123.66C383.166 124.5 383.376 125.247 383.796 125.9C384.24 126.553 384.776 127.125 385.406 127.615C386.036 128.105 386.888 128.7 387.961 129.4C389.128 130.147 390.061 130.8 390.761 131.36C391.461 131.92 392.056 132.608 392.546 133.425C393.036 134.218 393.281 135.14 393.281 136.19C393.281 137.403 392.955 138.488 392.301 139.445C391.648 140.378 390.738 141.113 389.571 141.65C388.428 142.163 387.145 142.42 385.721 142.42C384.671 142.42 383.575 142.28 382.431 142C381.288 141.697 380.518 141.37 380.121 141.02C380.005 140.927 379.911 140.845 379.841 140.775C379.795 140.682 379.771 140.542 379.771 140.355L379.666 134.79V134.755C379.666 134.662 379.725 134.615 379.841 134.615C379.958 134.592 380.028 134.627 380.051 134.72C380.751 136.143 381.358 137.298 381.871 138.185C382.408 139.072 383.073 139.853 383.866 140.53C384.683 141.207 385.605 141.545 386.631 141.545C387.565 141.545 388.335 141.3 388.941 140.81C389.548 140.297 389.851 139.433 389.851 138.22C389.851 137.193 389.618 136.295 389.151 135.525C388.708 134.755 388.16 134.102 387.506 133.565C386.853 133.028 385.955 132.387 384.811 131.64C383.691 130.917 382.816 130.298 382.186 129.785C381.58 129.272 381.055 128.653 380.611 127.93C380.168 127.207 379.946 126.355 379.946 125.375C379.946 124.138 380.296 123.1 380.996 122.26C381.72 121.397 382.641 120.767 383.761 120.37C384.881 119.95 386.06 119.74 387.296 119.74C388.113 119.74 388.941 119.822 389.781 119.985C390.621 120.125 391.298 120.3 391.811 120.51C392.021 120.603 392.161 120.708 392.231 120.825C392.301 120.918 392.336 121.047 392.336 121.21V126.355C392.336 126.425 392.278 126.483 392.161 126.53C392.045 126.553 391.975 126.53 391.951 126.46L391.671 125.795C391.088 124.325 390.4 123.077 389.606 122.05C388.836 121.023 387.751 120.51 386.351 120.51C385.418 120.51 384.648 120.778 384.041 121.315C383.458 121.852 383.166 122.633 383.166 123.66Z" fill="white"/>
</svg>
