<svg width="415" height="290" viewBox="0 0 415 290" fill="none" xmlns="http://www.w3.org/2000/svg">
<path d="M124.65 270.3C107.75 270.3 92.5 267.55 78.9 262.05C65.4 256.55 53.9 248.85 44.4 238.95C34.9 228.95 27.6 217.25 22.5 203.85C17.5 190.35 15 175.65 15 159.75C15 138.15 19.45 119.05 28.35 102.45C37.25 85.75 49.6 72.7 65.4 63.3C81.2 53.9 99.6 49.2 120.6 49.2C127.7 49.2 134.6 49.7 141.3 50.7C148 51.7 154.35 53.05 160.35 54.75C166.35 56.45 171.9 58.3 177 60.3C182.1 62.3 186.5 64.35 190.2 66.45L187.8 92.55C180 87.95 172.4 84.25 165 81.45C157.7 78.55 150.5 76.45 143.4 75.15C136.4 73.85 129.55 73.2 122.85 73.2C107.45 73.2 93.75 76.7 81.75 83.7C69.75 90.7 60.3 100.7 53.4 113.7C46.6 126.6 43.2 142 43.2 159.9C43.2 171.8 44.95 183 48.45 193.5C52.05 204 57.35 213.25 64.35 221.25C71.45 229.25 80.2 235.55 90.6 240.15C101.1 244.65 113.3 246.9 127.2 246.9C132.3 246.9 137.4 246.6 142.5 246C147.6 245.3 152.65 244.25 157.65 242.85C162.65 241.45 167.55 239.6 172.35 237.3C177.25 234.9 182.05 232.1 186.75 228.9L188.85 254.7C184.65 257.4 180 259.75 174.9 261.75C169.9 263.75 164.6 265.4 159 266.7C153.5 267.9 147.85 268.8 142.05 269.4C136.25 270 130.45 270.3 124.65 270.3Z" fill="white"/>
<path d="M85.2 176C85.2 174.033 85.2 172.142 85.2 170.325C85.2 168.508 85.2 166.492 85.2 164.275V152.25C85.2 150.017 85.2 147.967 85.2 146.1C85.2 144.233 85.2 142.317 85.2 140.35C86.2 140.35 87.3667 140.35 88.7 140.35C90.0333 140.35 91.4667 140.35 93 140.35C94.55 140.35 96.1667 140.35 97.85 140.35C100.633 140.35 102.967 140.675 104.85 141.325C106.733 141.958 108.15 143 109.1 144.45C110.05 145.883 110.525 147.817 110.525 150.25C110.525 152.233 110.133 154.042 109.35 155.675C108.583 157.308 107.317 158.625 105.55 159.625C103.783 160.608 101.408 161.108 98.425 161.125L100.5 158.65L105.85 165.725C106.683 166.825 107.567 167.992 108.5 169.225C109.433 170.458 110.342 171.667 111.225 172.85C112.125 174.033 112.917 175.083 113.6 176H106.825C105.758 174.533 104.725 173.125 103.725 171.775C102.742 170.408 101.775 169.075 100.825 167.775L94.6 159.225L98.15 162.275H89.925V157.5H96.4C98.2167 157.5 99.7167 157.292 100.9 156.875C102.1 156.442 102.992 155.742 103.575 154.775C104.175 153.808 104.475 152.517 104.475 150.9C104.475 149.583 104.267 148.542 103.85 147.775C103.433 147.008 102.883 146.433 102.2 146.05C101.533 145.667 100.8 145.417 100 145.3C99.2 145.183 98.4167 145.125 97.65 145.125H86.875L90.95 141.25C90.95 143.3 90.95 145.25 90.95 147.1C90.95 148.95 90.95 150.967 90.95 153.15V164.275C90.95 166.492 90.95 168.508 90.95 170.325C90.95 172.142 90.95 174.033 90.95 176H85.2ZM124.087 176C124.087 174.033 124.087 172.142 124.087 170.325C124.087 168.508 124.087 166.492 124.087 164.275V152.25C124.087 150.017 124.087 147.967 124.087 146.1C124.087 144.233 124.087 142.317 124.087 140.35H146.787V145.3C145.17 145.3 143.437 145.3 141.587 145.3C139.737 145.3 137.553 145.3 135.037 145.3H126.562L129.837 141.25C129.837 143.217 129.837 145.133 129.837 147C129.837 148.85 129.837 150.9 129.837 153.15V163.375C129.837 165.575 129.837 167.592 129.837 169.425C129.837 171.242 129.837 173.133 129.837 175.1L126.912 171.05H135.512C137.612 171.05 139.603 171.05 141.487 171.05C143.37 171.05 145.178 171.05 146.912 171.05V176H124.087ZM128.537 160.35V155.575H135.312C137.578 155.575 139.52 155.575 141.137 155.575C142.77 155.575 144.345 155.575 145.862 155.575V160.35C144.278 160.35 142.67 160.35 141.037 160.35C139.42 160.35 137.503 160.35 135.287 160.35H128.537ZM175.373 176.6C172.523 176.6 169.956 176.15 167.673 175.25C165.39 174.333 163.448 173.05 161.848 171.4C160.248 169.75 159.023 167.8 158.173 165.55C157.323 163.3 156.898 160.833 156.898 158.15C156.898 154.567 157.631 151.383 159.098 148.6C160.565 145.817 162.631 143.633 165.298 142.05C167.965 140.467 171.106 139.675 174.723 139.675C175.89 139.675 177.031 139.758 178.148 139.925C179.265 140.075 180.323 140.292 181.323 140.575C182.34 140.842 183.281 141.142 184.148 141.475C185.015 141.792 185.773 142.133 186.423 142.5L185.923 148.05C184.64 147.267 183.39 146.633 182.173 146.15C180.956 145.667 179.773 145.317 178.623 145.1C177.473 144.867 176.356 144.75 175.273 144.75C172.906 144.75 170.798 145.292 168.948 146.375C167.098 147.442 165.648 148.975 164.598 150.975C163.548 152.975 163.023 155.367 163.023 158.15C163.023 160 163.29 161.742 163.823 163.375C164.373 164.992 165.19 166.425 166.273 167.675C167.356 168.908 168.715 169.883 170.348 170.6C171.981 171.3 173.873 171.65 176.023 171.65C176.856 171.65 177.681 171.6 178.498 171.5C179.331 171.383 180.156 171.208 180.973 170.975C181.806 170.742 182.623 170.425 183.423 170.025C184.24 169.625 185.04 169.15 185.823 168.6L186.223 174.1C185.506 174.517 184.723 174.892 183.873 175.225C183.023 175.542 182.131 175.8 181.198 176C180.265 176.2 179.306 176.35 178.323 176.45C177.34 176.55 176.356 176.6 175.373 176.6Z" fill="#EA1010"/>
<path d="M214.427 176.6C211.327 176.6 208.627 176.108 206.327 175.125C204.043 174.142 202.143 172.792 200.627 171.075C199.127 169.358 198.002 167.392 197.252 165.175C196.502 162.958 196.127 160.617 196.127 158.15C196.127 154.7 196.818 151.583 198.202 148.8C199.602 146 201.643 143.783 204.327 142.15C207.027 140.5 210.335 139.675 214.252 139.675C217.218 139.675 219.827 140.15 222.077 141.1C224.343 142.05 226.235 143.375 227.752 145.075C229.285 146.758 230.435 148.717 231.202 150.95C231.968 153.183 232.352 155.583 232.352 158.15C232.352 161.667 231.652 164.817 230.252 167.6C228.852 170.383 226.81 172.583 224.127 174.2C221.46 175.8 218.227 176.6 214.427 176.6ZM214.302 171.65C216.352 171.65 218.127 171.283 219.627 170.55C221.127 169.817 222.368 168.817 223.352 167.55C224.335 166.283 225.06 164.842 225.527 163.225C226.01 161.608 226.252 159.917 226.252 158.15C226.252 156.25 225.993 154.483 225.477 152.85C224.96 151.217 224.193 149.783 223.177 148.55C222.177 147.317 220.935 146.358 219.452 145.675C217.968 144.975 216.252 144.625 214.302 144.625C212.285 144.625 210.527 144.983 209.027 145.7C207.527 146.417 206.268 147.408 205.252 148.675C204.252 149.942 203.502 151.383 203.002 153C202.502 154.617 202.252 156.333 202.252 158.15C202.252 159.95 202.493 161.658 202.977 163.275C203.46 164.892 204.193 166.333 205.177 167.6C206.177 168.85 207.435 169.842 208.952 170.575C210.468 171.292 212.252 171.65 214.302 171.65ZM243.872 176C243.872 174.033 243.872 172.142 243.872 170.325C243.872 168.508 243.872 166.492 243.872 164.275V152.25C243.872 150.017 243.872 147.967 243.872 146.1C243.872 144.233 243.872 142.317 243.872 140.35C244.872 140.35 246.039 140.35 247.372 140.35C248.705 140.35 250.139 140.35 251.672 140.35C253.222 140.35 254.839 140.35 256.522 140.35C259.305 140.35 261.639 140.675 263.522 141.325C265.405 141.958 266.822 143 267.772 144.45C268.722 145.883 269.197 147.817 269.197 150.25C269.197 152.233 268.805 154.042 268.022 155.675C267.255 157.308 265.989 158.625 264.222 159.625C262.455 160.608 260.08 161.108 257.097 161.125L259.172 158.65L264.522 165.725C265.355 166.825 266.239 167.992 267.172 169.225C268.105 170.458 269.014 171.667 269.897 172.85C270.797 174.033 271.589 175.083 272.272 176H265.497C264.43 174.533 263.397 173.125 262.397 171.775C261.414 170.408 260.447 169.075 259.497 167.775L253.272 159.225L256.822 162.275H248.597V157.5H255.072C256.889 157.5 258.389 157.292 259.572 156.875C260.772 156.442 261.664 155.742 262.247 154.775C262.847 153.808 263.147 152.517 263.147 150.9C263.147 149.583 262.939 148.542 262.522 147.775C262.105 147.008 261.555 146.433 260.872 146.05C260.205 145.667 259.472 145.417 258.672 145.3C257.872 145.183 257.089 145.125 256.322 145.125H245.547L249.622 141.25C249.622 143.3 249.622 145.25 249.622 147.1C249.622 148.95 249.622 150.967 249.622 153.15V164.275C249.622 166.492 249.622 168.508 249.622 170.325C249.622 172.142 249.622 174.033 249.622 176H243.872ZM282.784 176C282.784 174.033 282.784 172.142 282.784 170.325C282.784 168.508 282.784 166.492 282.784 164.275V152.275C282.784 150.008 282.784 147.95 282.784 146.1C282.784 144.25 282.784 142.333 282.784 140.35C284.234 140.35 285.675 140.35 287.109 140.35C288.559 140.35 290.009 140.35 291.459 140.35C292.909 140.35 294.392 140.35 295.909 140.35C298.642 140.35 301.067 140.75 303.184 141.55C305.317 142.333 307.117 143.492 308.584 145.025C310.05 146.542 311.159 148.392 311.909 150.575C312.675 152.758 313.059 155.25 313.059 158.05C313.059 160.567 312.717 162.917 312.034 165.1C311.367 167.267 310.3 169.167 308.834 170.8C307.384 172.433 305.467 173.708 303.084 174.625C300.7 175.542 297.8 176 294.384 176C292.9 176 291.517 176 290.234 176C288.95 176 287.7 176 286.484 176C285.284 176 284.05 176 282.784 176ZM288.659 171.2H294.409C297.492 171.2 299.95 170.625 301.784 169.475C303.617 168.325 304.934 166.75 305.734 164.75C306.534 162.75 306.934 160.483 306.934 157.95C306.934 156.017 306.7 154.267 306.234 152.7C305.767 151.117 305.042 149.767 304.059 148.65C303.075 147.517 301.825 146.65 300.309 146.05C298.792 145.45 296.984 145.15 294.884 145.15H288.659C288.659 146.467 288.659 147.792 288.659 149.125C288.659 150.442 288.659 151.9 288.659 153.5V163C288.659 164.567 288.659 166.008 288.659 167.325C288.659 168.625 288.659 169.917 288.659 171.2ZM335.251 176.575C333.768 176.575 332.26 176.442 330.726 176.175C329.21 175.925 327.793 175.6 326.476 175.2C325.176 174.8 324.126 174.4 323.326 174L323.801 168.525C324.951 169.175 326.135 169.733 327.351 170.2C328.585 170.65 329.826 171.008 331.076 171.275C332.343 171.525 333.601 171.65 334.851 171.65C336.218 171.65 337.435 171.475 338.501 171.125C339.568 170.758 340.401 170.2 341.001 169.45C341.618 168.683 341.926 167.7 341.926 166.5C341.926 165.35 341.585 164.4 340.901 163.65C340.235 162.9 339.26 162.25 337.976 161.7C336.693 161.133 335.16 160.583 333.376 160.05C331.143 159.367 329.235 158.608 327.651 157.775C326.068 156.925 324.86 155.867 324.026 154.6C323.21 153.333 322.801 151.7 322.801 149.7C322.801 147.767 323.243 146.042 324.126 144.525C325.026 143.008 326.36 141.825 328.126 140.975C329.91 140.108 332.135 139.675 334.801 139.675C335.868 139.675 336.935 139.75 338.001 139.9C339.085 140.05 340.118 140.25 341.101 140.5C342.101 140.733 343.01 141.008 343.826 141.325C344.643 141.642 345.351 141.967 345.951 142.3L345.426 147.75C344.41 147.067 343.326 146.5 342.176 146.05C341.043 145.583 339.918 145.233 338.801 145C337.701 144.75 336.676 144.625 335.726 144.625C334.51 144.625 333.393 144.8 332.376 145.15C331.36 145.5 330.543 146.033 329.926 146.75C329.31 147.45 329.001 148.35 329.001 149.45C329.001 150.45 329.268 151.292 329.801 151.975C330.335 152.658 331.176 153.267 332.326 153.8C333.476 154.333 334.96 154.883 336.776 155.45C339.626 156.35 341.876 157.267 343.526 158.2C345.176 159.117 346.343 160.2 347.026 161.45C347.726 162.7 348.076 164.267 348.076 166.15C348.076 168.167 347.626 169.958 346.726 171.525C345.843 173.092 344.451 174.325 342.551 175.225C340.668 176.125 338.235 176.575 335.251 176.575Z" fill="white"/>
</svg>
